# Y up, +Z front; 1 unit = 1 metre. Origin = real left hinge axis.
mtllib fantasy-door.mtl
o FantasyDoor
v 0.03600000 0.00300000 0.04300000
v 0.14822480 0.00300000 0.04300000
v 0.14832481 0.11369953 0.04300000
v 0.03647124 0.11351575 0.04300000
v 0.52313293 0.00300000 0.04300000
v 0.52192805 0.11243713 0.04300000
v 0.61672928 0.00300000 0.04300000
v 0.61468212 0.11165125 0.04300000
v 0.96981526 0.00300000 0.04300000
v 0.96771182 0.11253882 0.04300000
v 1.07000000 0.00300000 0.04300000
v 1.07047124 0.11374803 0.04300000
v 0.14617299 0.66244509 0.04300000
v 0.03631502 0.66324948 0.04300000
v 0.51592805 0.11843713 0.04800000
v 0.15432481 0.11969953 0.04800000
v 0.52041138 0.66119127 0.04300000
v 0.51441138 0.65519127 0.04800000
v 0.15217299 0.65644509 0.04800000
v 0.50192805 0.13243713 0.01300000
v 0.16832481 0.13369953 0.01300000
v 0.50041138 0.64119127 0.01300000
v 0.16617299 0.64244509 0.01300000
v 0.33420931 0.38744326 0.01200000
v 0.61438293 0.66139764 0.04300000
v 0.96171182 0.11853882 0.04800000
v 0.62068212 0.11765125 0.04800000
v 0.96874497 0.66274989 0.04300000
v 0.96274497 0.65674989 0.04800000
v 0.62038293 0.65539764 0.04800000
v 0.94771182 0.13253882 0.01300000
v 0.63468212 0.13165125 0.01300000
v 0.94874497 0.64274989 0.01300000
v 0.63438293 0.64139764 0.01300000
v 0.79138046 0.38708440 0.01200000
v 1.07031502 0.66318848 0.04300000
v 0.14700882 0.75182417 0.04300000
v 0.03573934 0.75316291 0.04300000
v 0.52227587 0.75128630 0.04300000
v 0.61656021 0.75236850 0.04300000
v 0.97039909 0.75342252 0.04300000
v 1.06973934 0.75284305 0.04300000
v 0.14879714 1.25354991 0.04300000
v 0.03551074 1.25466771 0.04300000
v 0.51627587 0.75728630 0.04800000
v 0.15300882 0.75782417 0.04800000
v 0.52298166 1.25403145 0.04300000
v 0.51698166 1.24803145 0.04800000
v 0.15479714 1.24754991 0.04800000
v 0.50227587 0.77128630 0.01300000
v 0.16700882 0.77182417 0.01300000
v 0.50298166 1.23403145 0.01300000
v 0.16879714 1.23354991 0.01300000
v 0.33526587 1.00267296 0.01200000
v 0.61591249 1.25537892 0.04300000
v 0.96439909 0.75942252 0.04800000
v 0.62256021 0.75836850 0.04800000
v 0.96864656 1.25554006 0.04300000
v 0.96264656 1.24954006 0.04800000
v 0.62191249 1.24937892 0.04800000
v 0.95039909 0.77342252 0.01300000
v 0.63656021 0.77236850 0.01300000
v 0.94864656 1.23554006 0.01300000
v 0.63591249 1.23537892 0.01300000
v 0.79287959 1.00417750 0.01200000
v 1.06951074 1.25426944 0.04300000
v 0.14718356 1.33151809 0.04300000
v 0.03593360 1.33178431 0.04300000
v 0.52081022 1.33274736 0.04300000
v 0.61401691 1.33359989 0.04300000
v 0.96775462 1.33277723 0.04300000
v 1.06993360 1.33153233 0.04300000
v 0.14609700 1.93894024 0.04300000
v 0.03644488 1.93820469 0.04300000
v 0.51481022 1.33874736 0.04800000
v 0.15318356 1.33751809 0.04800000
v 0.52104880 1.94022372 0.04300000
v 0.51504880 1.93422372 0.04800000
v 0.15209700 1.93294024 0.04800000
v 0.50081022 1.35274736 0.01300000
v 0.16718356 1.35151809 0.01300000
v 0.50104880 1.92022372 0.01300000
v 0.16609700 1.91894024 0.01300000
v 0.33378489 1.63585735 0.01200000
v 0.61548902 1.94010033 0.04300000
v 0.96175462 1.33877723 0.04800000
v 0.62001691 1.33959989 0.04800000
v 0.96989506 1.93875800 0.04300000
v 0.96389506 1.93275800 0.04800000
v 0.62148902 1.93410033 0.04800000
v 0.94775462 1.35277723 0.01300000
v 0.63401691 1.35359989 0.01300000
v 0.94989506 1.91875800 0.01300000
v 0.63548902 1.92010033 0.01300000
v 0.79178890 1.63630886 0.01200000
v 1.07044488 1.93824116 0.04300000
v 0.14818312 2.04700000 0.04300000
v 0.03636379 2.04700000 0.04300000
v 0.52311648 2.04700000 0.04300000
v 0.61674438 2.04700000 0.04300000
v 0.96985611 2.04700000 0.04300000
v 1.07036379 2.04700000 0.04300000
v 0.03647124 0.11351575 -0.08700000
v 0.14832481 0.11369953 -0.08700000
v 0.14822480 0.00300000 -0.08700000
v 0.03600000 0.00300000 -0.08700000
v 0.52192805 0.11243713 -0.08700000
v 0.52313293 0.00300000 -0.08700000
v 0.61468212 0.11165125 -0.08700000
v 0.61672928 0.00300000 -0.08700000
v 0.96771182 0.11253882 -0.08700000
v 0.96981526 0.00300000 -0.08700000
v 1.07047124 0.11374803 -0.08700000
v 1.07000000 0.00300000 -0.08700000
v 0.03631502 0.66324948 -0.08700000
v 0.14617299 0.66244509 -0.08700000
v 0.15432481 0.11969953 -0.09200000
v 0.51592805 0.11843713 -0.09200000
v 0.51441138 0.65519127 -0.09200000
v 0.52041138 0.66119127 -0.08700000
v 0.15217299 0.65644509 -0.09200000
v 0.16832481 0.13369953 -0.05700000
v 0.50192805 0.13243713 -0.05700000
v 0.50041138 0.64119127 -0.05700000
v 0.16617299 0.64244509 -0.05700000
v 0.33420931 0.38744326 -0.05600000
v 0.61438293 0.66139764 -0.08700000
v 0.62068212 0.11765125 -0.09200000
v 0.96171182 0.11853882 -0.09200000
v 0.96274497 0.65674989 -0.09200000
v 0.96874497 0.66274989 -0.08700000
v 0.62038293 0.65539764 -0.09200000
v 0.63468212 0.13165125 -0.05700000
v 0.94771182 0.13253882 -0.05700000
v 0.94874497 0.64274989 -0.05700000
v 0.63438293 0.64139764 -0.05700000
v 0.79138046 0.38708440 -0.05600000
v 1.07031502 0.66318848 -0.08700000
v 0.03573934 0.75316291 -0.08700000
v 0.14700882 0.75182417 -0.08700000
v 0.52227587 0.75128630 -0.08700000
v 0.61656021 0.75236850 -0.08700000
v 0.97039909 0.75342252 -0.08700000
v 1.06973934 0.75284305 -0.08700000
v 0.03551074 1.25466771 -0.08700000
v 0.14879714 1.25354991 -0.08700000
v 0.15300882 0.75782417 -0.09200000
v 0.51627587 0.75728630 -0.09200000
v 0.51698166 1.24803145 -0.09200000
v 0.52298166 1.25403145 -0.08700000
v 0.15479714 1.24754991 -0.09200000
v 0.16700882 0.77182417 -0.05700000
v 0.50227587 0.77128630 -0.05700000
v 0.50298166 1.23403145 -0.05700000
v 0.16879714 1.23354991 -0.05700000
v 0.33526587 1.00267296 -0.05600000
v 0.61591249 1.25537892 -0.08700000
v 0.62256021 0.75836850 -0.09200000
v 0.96439909 0.75942252 -0.09200000
v 0.96264656 1.24954006 -0.09200000
v 0.96864656 1.25554006 -0.08700000
v 0.62191249 1.24937892 -0.09200000
v 0.63656021 0.77236850 -0.05700000
v 0.95039909 0.77342252 -0.05700000
v 0.94864656 1.23554006 -0.05700000
v 0.63591249 1.23537892 -0.05700000
v 0.79287959 1.00417750 -0.05600000
v 1.06951074 1.25426944 -0.08700000
v 0.03593360 1.33178431 -0.08700000
v 0.14718356 1.33151809 -0.08700000
v 0.52081022 1.33274736 -0.08700000
v 0.61401691 1.33359989 -0.08700000
v 0.96775462 1.33277723 -0.08700000
v 1.06993360 1.33153233 -0.08700000
v 0.03644488 1.93820469 -0.08700000
v 0.14609700 1.93894024 -0.08700000
v 0.15318356 1.33751809 -0.09200000
v 0.51481022 1.33874736 -0.09200000
v 0.51504880 1.93422372 -0.09200000
v 0.52104880 1.94022372 -0.08700000
v 0.15209700 1.93294024 -0.09200000
v 0.16718356 1.35151809 -0.05700000
v 0.50081022 1.35274736 -0.05700000
v 0.50104880 1.92022372 -0.05700000
v 0.16609700 1.91894024 -0.05700000
v 0.33378489 1.63585735 -0.05600000
v 0.61548902 1.94010033 -0.08700000
v 0.62001691 1.33959989 -0.09200000
v 0.96175462 1.33877723 -0.09200000
v 0.96389506 1.93275800 -0.09200000
v 0.96989506 1.93875800 -0.08700000
v 0.62148902 1.93410033 -0.09200000
v 0.63401691 1.35359989 -0.05700000
v 0.94775462 1.35277723 -0.05700000
v 0.94989506 1.91875800 -0.05700000
v 0.63548902 1.92010033 -0.05700000
v 0.79178890 1.63630886 -0.05600000
v 1.07044488 1.93824116 -0.08700000
v 0.03636379 2.04700000 -0.08700000
v 0.14818312 2.04700000 -0.08700000
v 0.52311648 2.04700000 -0.08700000
v 0.61674438 2.04700000 -0.08700000
v 0.96985611 2.04700000 -0.08700000
v 1.07036379 2.04700000 -0.08700000
v 0.03300000 0.00000000 0.03900000
v 0.14822480 0.00000000 0.03900000
v 0.14822480 0.00000000 -0.08300000
v 0.03300000 0.00000000 -0.08300000
v 0.52313293 0.00000000 0.03900000
v 0.52313293 0.00000000 -0.08300000
v 0.61672928 0.00000000 0.03900000
v 0.61672928 0.00000000 -0.08300000
v 0.96981526 0.00000000 0.03900000
v 0.96981526 0.00000000 -0.08300000
v 1.07300000 0.00000000 0.03900000
v 1.07300000 0.00000000 -0.08300000
v 1.07347124 0.11374803 0.03900000
v 1.07347124 0.11374803 -0.08300000
v 1.07331502 0.66318848 0.03900000
v 1.07331502 0.66318848 -0.08300000
v 1.07273934 0.75284305 0.03900000
v 1.07273934 0.75284305 -0.08300000
v 1.07251074 1.25426944 0.03900000
v 1.07251074 1.25426944 -0.08300000
v 1.07293360 1.33153233 0.03900000
v 1.07293360 1.33153233 -0.08300000
v 1.07344488 1.93824116 0.03900000
v 1.07344488 1.93824116 -0.08300000
v 1.07336379 2.05000000 0.03900000
v 1.07336379 2.05000000 -0.08300000
v 0.96985611 2.05000000 0.03900000
v 0.96985611 2.05000000 -0.08300000
v 0.61674438 2.05000000 0.03900000
v 0.61674438 2.05000000 -0.08300000
v 0.52311648 2.05000000 0.03900000
v 0.52311648 2.05000000 -0.08300000
v 0.14818312 2.05000000 0.03900000
v 0.14818312 2.05000000 -0.08300000
v 0.03336379 2.05000000 0.03900000
v 0.03336379 2.05000000 -0.08300000
v 0.03344488 1.93820469 0.03900000
v 0.03344488 1.93820469 -0.08300000
v 0.03293360 1.33178431 0.03900000
v 0.03293360 1.33178431 -0.08300000
v 0.03251074 1.25466771 0.03900000
v 0.03251074 1.25466771 -0.08300000
v 0.03273934 0.75316291 0.03900000
v 0.03273934 0.75316291 -0.08300000
v 0.03331502 0.66324948 0.03900000
v 0.03331502 0.66324948 -0.08300000
v 0.03347124 0.11351575 0.03900000
v 0.03347124 0.11351575 -0.08300000
v 0.00000000 0.23900000 0.02760000
v 0.00000000 0.24300000 0.03000000
v -0.02121320 0.24300000 0.02121320
v -0.01951615 0.23900000 0.01951615
v -0.03000000 0.24300000 0.00000000
v -0.02760000 0.23900000 0.00000000
v -0.02121320 0.24300000 -0.02121320
v -0.01951615 0.23900000 -0.01951615
v -0.00000000 0.24300000 -0.03000000
v -0.00000000 0.23900000 -0.02760000
v 0.02121320 0.24300000 -0.02121320
v 0.01951615 0.23900000 -0.01951615
v 0.03000000 0.24300000 -0.00000000
v 0.02760000 0.23900000 -0.00000000
v 0.02121320 0.24300000 0.02121320
v 0.01951615 0.23900000 0.01951615
v 0.03300000 0.24300000 0.04400000
v 0.03300000 0.23900000 0.04400000
v 0.06400000 0.24300000 0.04400000
v 0.06400000 0.23900000 0.04400000
v 0.06400000 0.24300000 0.05500000
v 0.06400000 0.23900000 0.05500000
v 0.02900000 0.24300000 0.05500000
v 0.02900000 0.23900000 0.05500000
v 0.00600000 0.24300000 0.03000000
v 0.00600000 0.23900000 0.03000000
v 0.00000000 0.46700000 0.03000000
v -0.02121320 0.46700000 0.02121320
v -0.03000000 0.46700000 0.00000000
v -0.02121320 0.46700000 -0.02121320
v -0.00000000 0.46700000 -0.03000000
v 0.02121320 0.46700000 -0.02121320
v 0.03000000 0.46700000 -0.00000000
v 0.02121320 0.46700000 0.02121320
v 0.03300000 0.46700000 0.04400000
v 0.06400000 0.46700000 0.04400000
v 0.06400000 0.46700000 0.05500000
v 0.02900000 0.46700000 0.05500000
v 0.00600000 0.46700000 0.03000000
v 0.00000000 0.47100000 0.02760000
v -0.01951615 0.47100000 0.01951615
v -0.02760000 0.47100000 0.00000000
v -0.01951615 0.47100000 -0.01951615
v -0.00000000 0.47100000 -0.02760000
v 0.01951615 0.47100000 -0.01951615
v 0.02760000 0.47100000 -0.00000000
v 0.01951615 0.47100000 0.01951615
v 0.03300000 0.47100000 0.04400000
v 0.06400000 0.47100000 0.04400000
v 0.06400000 0.47100000 0.05500000
v 0.02900000 0.47100000 0.05500000
v 0.00600000 0.47100000 0.03000000
v 0.00000000 1.61900000 0.02760000
v 0.00000000 1.62300000 0.03000000
v -0.02121320 1.62300000 0.02121320
v -0.01951615 1.61900000 0.01951615
v -0.03000000 1.62300000 0.00000000
v -0.02760000 1.61900000 0.00000000
v -0.02121320 1.62300000 -0.02121320
v -0.01951615 1.61900000 -0.01951615
v -0.00000000 1.62300000 -0.03000000
v -0.00000000 1.61900000 -0.02760000
v 0.02121320 1.62300000 -0.02121320
v 0.01951615 1.61900000 -0.01951615
v 0.03000000 1.62300000 -0.00000000
v 0.02760000 1.61900000 -0.00000000
v 0.02121320 1.62300000 0.02121320
v 0.01951615 1.61900000 0.01951615
v 0.03300000 1.62300000 0.04400000
v 0.03300000 1.61900000 0.04400000
v 0.06400000 1.62300000 0.04400000
v 0.06400000 1.61900000 0.04400000
v 0.06400000 1.62300000 0.05500000
v 0.06400000 1.61900000 0.05500000
v 0.02900000 1.62300000 0.05500000
v 0.02900000 1.61900000 0.05500000
v 0.00600000 1.62300000 0.03000000
v 0.00600000 1.61900000 0.03000000
v 0.00000000 1.84700000 0.03000000
v -0.02121320 1.84700000 0.02121320
v -0.03000000 1.84700000 0.00000000
v -0.02121320 1.84700000 -0.02121320
v -0.00000000 1.84700000 -0.03000000
v 0.02121320 1.84700000 -0.02121320
v 0.03000000 1.84700000 -0.00000000
v 0.02121320 1.84700000 0.02121320
v 0.03300000 1.84700000 0.04400000
v 0.06400000 1.84700000 0.04400000
v 0.06400000 1.84700000 0.05500000
v 0.02900000 1.84700000 0.05500000
v 0.00600000 1.84700000 0.03000000
v 0.00000000 1.85100000 0.02760000
v -0.01951615 1.85100000 0.01951615
v -0.02760000 1.85100000 0.00000000
v -0.01951615 1.85100000 -0.01951615
v -0.00000000 1.85100000 -0.02760000
v 0.01951615 1.85100000 -0.01951615
v 0.02760000 1.85100000 -0.00000000
v 0.01951615 1.85100000 0.01951615
v 0.03300000 1.85100000 0.04400000
v 0.06400000 1.85100000 0.04400000
v 0.06400000 1.85100000 0.05500000
v 0.02900000 1.85100000 0.05500000
v 0.00600000 1.85100000 0.03000000
v 1.07448000 1.00860000 0.04350000
v 1.07448000 1.03229942 0.04350000
v 1.07448000 1.03229942 0.05600000
v 1.07448000 1.00860000 0.05600000
v 1.07448000 1.07953000 0.04350000
v 1.07448000 1.07953000 0.05600000
v 1.07448000 1.11360000 0.04350000
v 1.07448000 1.11360000 0.05600000
v 1.03348000 1.11360000 0.04350000
v 1.03348000 1.11360000 0.05600000
v 0.99248000 1.11360000 0.04350000
v 0.99248000 1.11360000 0.05600000
v 0.99248000 1.05944000 0.04350000
v 0.99248000 1.05944000 0.05600000
v 0.99248000 1.03449474 0.04350000
v 0.99248000 1.03449474 0.05600000
v 0.99248000 1.01874433 0.04350000
v 0.99248000 1.01874433 0.05600000
v 0.99248000 1.01482321 0.04350000
v 0.99248000 1.01482321 0.05600000
v 0.99248000 1.00860000 0.04350000
v 0.99248000 1.00860000 0.05600000
v 0.99248000 1.00237679 0.04350000
v 0.99248000 1.00237679 0.05600000
v 0.99248000 0.99845567 0.04350000
v 0.99248000 0.99845567 0.05600000
v 0.99248000 0.98270526 0.04350000
v 0.99248000 0.98270526 0.05600000
v 0.99248000 0.95776000 0.04350000
v 0.99248000 0.95776000 0.05600000
v 0.99248000 0.90360000 0.04350000
v 0.99248000 0.90360000 0.05600000
v 1.03348000 0.90360000 0.04350000
v 1.03348000 0.90360000 0.05600000
v 1.07448000 0.90360000 0.04350000
v 1.07448000 0.90360000 0.05600000
v 1.07448000 0.93767000 0.04350000
v 1.07448000 0.93767000 0.05600000
v 1.07448000 0.98490058 0.04350000
v 1.07448000 0.98490058 0.05600000
v 1.04906384 1.01760800 0.05600000
v 1.05148000 1.00860000 0.05600000
v 1.04248800 1.02418384 0.05600000
v 1.04002714 1.02536708 0.05600000
v 1.03348000 1.02660000 0.05600000
v 1.02693286 1.02536708 0.05600000
v 1.02218046 1.02261143 0.05600000
v 1.01826120 1.01821187 0.05600000
v 1.01600689 1.01292324 0.05600000
v 1.01568383 1.01130120 0.05600000
v 1.01548000 1.00860000 0.05600000
v 1.01568383 1.00589880 0.05600000
v 1.01600689 1.00427676 0.05600000
v 1.01826120 0.99898813 0.05600000
v 1.02218046 0.99458857 0.05600000
v 1.02693286 0.99183292 0.05600000
v 1.03348000 0.99060000 0.05600000
v 1.04002714 0.99183292 0.05600000
v 1.04248800 0.99301616 0.05600000
v 1.04906384 0.99959200 0.05600000
v 1.04906384 1.01760800 0.11400000
v 1.05148000 1.00860000 0.11400000
v 1.04248800 1.02418384 0.11400000
v 1.04002714 1.02536708 0.11400000
v 1.03348000 1.02660000 0.11400000
v 1.02693286 1.02536708 0.11400000
v 1.02218046 1.02261143 0.11400000
v 1.01826120 1.01821187 0.11400000
v 1.01600689 1.01292324 0.11400000
v 1.01568383 1.01130120 0.11400000
v 1.01548000 1.00860000 0.11400000
v 1.01568383 1.00589880 0.11400000
v 1.01600689 1.00427676 0.11400000
v 1.01826120 0.99898813 0.11400000
v 1.02218046 0.99458857 0.11400000
v 1.02693286 0.99183292 0.11400000
v 1.03348000 0.99060000 0.11400000
v 1.04002714 0.99183292 0.11400000
v 1.04248800 0.99301616 0.11400000
v 1.04906384 0.99959200 0.11400000
v 1.06808000 1.02860000 0.11400000
v 1.07348000 1.00860000 0.11400000
v 1.05348000 1.04320000 0.11400000
v 1.04760940 1.04478506 0.11400000
v 1.03348000 1.04860000 0.11400000
v 1.01978595 1.04367014 0.11400000
v 1.00848000 1.03960000 0.11400000
v 0.99548000 1.03260000 0.11400000
v 0.93648000 1.03260000 0.11400000
v 0.92148000 1.02560000 0.11400000
v 0.91548000 1.00860000 0.11400000
v 0.92148000 0.99160000 0.11400000
v 0.93648000 0.98460000 0.11400000
v 0.99548000 0.98460000 0.11400000
v 1.00848000 0.97760000 0.11400000
v 1.01978595 0.97352986 0.11400000
v 1.03348000 0.96860000 0.11400000
v 1.04760940 0.97241494 0.11400000
v 1.05348000 0.97400000 0.11400000
v 1.06808000 0.98860000 0.11400000
v 1.06808000 1.02860000 0.14400000
v 1.07348000 1.00860000 0.14400000
v 1.05348000 1.04320000 0.14400000
v 1.04760940 1.04478506 0.14400000
v 1.03348000 1.04860000 0.14400000
v 1.01978595 1.04367014 0.14400000
v 1.00848000 1.03960000 0.14400000
v 0.99548000 1.03260000 0.14400000
v 0.93648000 1.03260000 0.14400000
v 0.92148000 1.02560000 0.14400000
v 0.91548000 1.00860000 0.14400000
v 0.92148000 0.99160000 0.14400000
v 0.93648000 0.98460000 0.14400000
v 0.99548000 0.98460000 0.14400000
v 1.00848000 0.97760000 0.14400000
v 1.01978595 0.97352986 0.14400000
v 1.03348000 0.96860000 0.14400000
v 1.04760940 0.97241494 0.14400000
v 1.05348000 0.97400000 0.14400000
v 1.06808000 0.98860000 0.14400000
v 1.06392800 1.02620000 0.15100000
v 1.06868000 1.00860000 0.15100000
v 1.05108000 1.03904800 0.15100000
v 1.04591388 1.04044285 0.15100000
v 1.03348000 1.04380000 0.15100000
v 1.02142923 1.03946172 0.15100000
v 1.01148000 1.03588000 0.15100000
v 1.00004000 1.02972000 0.15100000
v 0.94812000 1.02972000 0.15100000
v 0.93492000 1.02356000 0.15100000
v 0.92964000 1.00860000 0.15100000
v 0.93492000 0.99364000 0.15100000
v 0.94812000 0.98748000 0.15100000
v 1.00004000 0.98748000 0.15100000
v 1.01148000 0.98132000 0.15100000
v 1.02142923 0.97773828 0.15100000
v 1.03348000 0.97340000 0.15100000
v 1.04591388 0.97675715 0.15100000
v 1.05108000 0.97815200 0.15100000
v 1.06392800 0.99100000 0.15100000
v 1.03348000 1.00860000 0.04350000
v 1.03348000 1.00860000 0.15100000
vt 0.00969520 0.01754097
vt 0.06185798 0.01754097
vt 0.06190447 0.07022239
vt 0.00991424 0.07013492
vt 0.06185798 0.01754097
vt 0.23611760 0.01754097
vt 0.23555757 0.06962162
vt 0.06190447 0.07022239
vt 0.23611760 0.01754097
vt 0.27962176 0.01754097
vt 0.27867023 0.06924762
vt 0.23555757 0.06962162
vt 0.27962176 0.01754097
vt 0.44373831 0.01754097
vt 0.44276062 0.06967001
vt 0.27867023 0.06924762
vt 0.44373831 0.01754097
vt 0.49030480 0.01754097
vt 0.49052384 0.07024547
vt 0.44276062 0.06967001
vt 0.00991424 0.07013492
vt 0.06190447 0.07022239
vt 0.06090429 0.33136797
vt 0.00984162 0.33175078
vt 0.06190447 0.07022239
vt 0.23555757 0.06962162
vt 0.23276873 0.07247699
vt 0.06469331 0.07307776
vt 0.23555757 0.06962162
vt 0.23485261 0.33077128
vt 0.23206377 0.32791591
vt 0.23276873 0.07247699
vt 0.23485261 0.33077128
vt 0.06090429 0.33136797
vt 0.06369313 0.32851260
vt 0.23206377 0.32791591
vt 0.06090429 0.33136797
vt 0.06190447 0.07022239
vt 0.06469331 0.07307776
vt 0.06369313 0.32851260
vt 0.06469331 0.07307776
vt 0.23276873 0.07247699
vt 0.22626144 0.07913953
vt 0.07120059 0.07974030
vt 0.23276873 0.07247699
vt 0.23206377 0.32791591
vt 0.22555649 0.32125337
vt 0.22626144 0.07913953
vt 0.23206377 0.32791591
vt 0.06369313 0.32851260
vt 0.07020041 0.32185006
vt 0.22555649 0.32125337
vt 0.06369313 0.32851260
vt 0.06469331 0.07307776
vt 0.07120059 0.07974030
vt 0.07020041 0.32185006
vt 0.07120059 0.07974030
vt 0.22626144 0.07913953
vt 0.14830473 0.20049581
vt 0.22626144 0.07913953
vt 0.22555649 0.32125337
vt 0.14830473 0.20049581
vt 0.22555649 0.32125337
vt 0.07020041 0.32185006
vt 0.14830473 0.20049581
vt 0.07020041 0.32185006
vt 0.07120059 0.07974030
vt 0.14830473 0.20049581
vt 0.23555757 0.06962162
vt 0.27867023 0.06924762
vt 0.27853117 0.33086949
vt 0.23485261 0.33077128
vt 0.27867023 0.06924762
vt 0.44276062 0.06967001
vt 0.43997178 0.07252538
vt 0.28145907 0.07210299
vt 0.44276062 0.06967001
vt 0.44324084 0.33151303
vt 0.44045200 0.32865765
vt 0.43997178 0.07252538
vt 0.44324084 0.33151303
vt 0.27853117 0.33086949
vt 0.28132000 0.32801412
vt 0.44045200 0.32865765
vt 0.27853117 0.33086949
vt 0.27867023 0.06924762
vt 0.28145907 0.07210299
vt 0.28132000 0.32801412
vt 0.28145907 0.07210299
vt 0.43997178 0.07252538
vt 0.43346450 0.07918792
vt 0.28796636 0.07876553
vt 0.43997178 0.07252538
vt 0.44045200 0.32865765
vt 0.43394471 0.32199511
vt 0.43346450 0.07918792
vt 0.44045200 0.32865765
vt 0.28132000 0.32801412
vt 0.28782729 0.32135158
vt 0.43394471 0.32199511
vt 0.28132000 0.32801412
vt 0.28145907 0.07210299
vt 0.28796636 0.07876553
vt 0.28782729 0.32135158
vt 0.28796636 0.07876553
vt 0.43346450 0.07918792
vt 0.36080071 0.20032504
vt 0.43346450 0.07918792
vt 0.43394471 0.32199511
vt 0.36080071 0.20032504
vt 0.43394471 0.32199511
vt 0.28782729 0.32135158
vt 0.36080071 0.20032504
vt 0.28782729 0.32135158
vt 0.28796636 0.07876553
vt 0.36080071 0.20032504
vt 0.44276062 0.06967001
vt 0.49052384 0.07024547
vt 0.49045122 0.33172175
vt 0.44324084 0.33151303
vt 0.00984162 0.33175078
vt 0.06090429 0.33136797
vt 0.06129279 0.37390308
vt 0.00957404 0.37454018
vt 0.06090429 0.33136797
vt 0.23485261 0.33077128
vt 0.23571923 0.37364711
vt 0.06129279 0.37390308
vt 0.23485261 0.33077128
vt 0.27853117 0.33086949
vt 0.27954318 0.37416212
vt 0.23571923 0.37364711
vt 0.27853117 0.33086949
vt 0.44324084 0.33151303
vt 0.44400968 0.37466373
vt 0.27954318 0.37416212
vt 0.44324084 0.33151303
vt 0.49045122 0.33172175
vt 0.49018364 0.37438796
vt 0.44400968 0.37466373
vt 0.00957404 0.37454018
vt 0.06129279 0.37390308
vt 0.06212401 0.61267214
vt 0.00946779 0.61320410
vt 0.06129279 0.37390308
vt 0.23571923 0.37364711
vt 0.23293039 0.37650248
vt 0.06408162 0.37675845
vt 0.23571923 0.37364711
vt 0.23604729 0.61290130
vt 0.23325845 0.61004593
vt 0.23293039 0.37650248
vt 0.23604729 0.61290130
vt 0.06212401 0.61267214
vt 0.06491284 0.60981677
vt 0.23325845 0.61004593
vt 0.06212401 0.61267214
vt 0.06129279 0.37390308
vt 0.06408162 0.37675845
vt 0.06491284 0.60981677
vt 0.06408162 0.37675845
vt 0.23293039 0.37650248
vt 0.22642311 0.38316502
vt 0.07058891 0.38342099
vt 0.23293039 0.37650248
vt 0.23325845 0.61004593
vt 0.22675117 0.60338339
vt 0.22642311 0.38316502
vt 0.23325845 0.61004593
vt 0.06491284 0.60981677
vt 0.07142013 0.60315423
vt 0.22675117 0.60338339
vt 0.06491284 0.60981677
vt 0.06408162 0.37675845
vt 0.07058891 0.38342099
vt 0.07142013 0.60315423
vt 0.07058891 0.38342099
vt 0.22642311 0.38316502
vt 0.14879583 0.49328091
vt 0.22642311 0.38316502
vt 0.22675117 0.60338339
vt 0.14879583 0.49328091
vt 0.22675117 0.60338339
vt 0.07142013 0.60315423
vt 0.14879583 0.49328091
vt 0.07142013 0.60315423
vt 0.07058891 0.38342099
vt 0.14879583 0.49328091
vt 0.23571923 0.37364711
vt 0.27954318 0.37416212
vt 0.27924212 0.61354256
vt 0.23604729 0.61290130
vt 0.27954318 0.37416212
vt 0.44400968 0.37466373
vt 0.44122084 0.37751910
vt 0.28233201 0.37701750
vt 0.44400968 0.37466373
vt 0.44319509 0.61361924
vt 0.44040625 0.61076387
vt 0.44122084 0.37751910
vt 0.44319509 0.61361924
vt 0.27924212 0.61354256
vt 0.28203095 0.61068719
vt 0.44040625 0.61076387
vt 0.27924212 0.61354256
vt 0.27954318 0.37416212
vt 0.28233201 0.37701750
vt 0.28203095 0.61068719
vt 0.28233201 0.37701750
vt 0.44122084 0.37751910
vt 0.43471356 0.38418164
vt 0.28883930 0.38368003
vt 0.44122084 0.37751910
vt 0.44040625 0.61076387
vt 0.43389897 0.60410133
vt 0.43471356 0.38418164
vt 0.44040625 0.61076387
vt 0.28203095 0.61068719
vt 0.28853824 0.60402465
vt 0.43389897 0.60410133
vt 0.28203095 0.61068719
vt 0.28233201 0.37701750
vt 0.28883930 0.38368003
vt 0.28853824 0.60402465
vt 0.28883930 0.38368003
vt 0.43471356 0.38418164
vt 0.36149752 0.49399691
vt 0.43471356 0.38418164
vt 0.43389897 0.60410133
vt 0.36149752 0.49399691
vt 0.43389897 0.60410133
vt 0.28853824 0.60402465
vt 0.36149752 0.49399691
vt 0.28853824 0.60402465
vt 0.28883930 0.38368003
vt 0.36149752 0.49399691
vt 0.44400968 0.37466373
vt 0.49018364 0.37438796
vt 0.49007739 0.61301457
vt 0.44319509 0.61361924
vt 0.00946779 0.61320410
vt 0.06212401 0.61267214
vt 0.06137401 0.64977685
vt 0.00966434 0.64990355
vt 0.06212401 0.61267214
vt 0.23604729 0.61290130
vt 0.23503799 0.65036186
vt 0.06137401 0.64977685
vt 0.23604729 0.61290130
vt 0.27924212 0.61354256
vt 0.27836104 0.65076757
vt 0.23503799 0.65036186
vt 0.27924212 0.61354256
vt 0.44319509 0.61361924
vt 0.44278052 0.65037607
vt 0.27836104 0.65076757
vt 0.44319509 0.61361924
vt 0.49007739 0.61301457
vt 0.49027394 0.64978363
vt 0.44278052 0.65037607
vt 0.00966434 0.64990355
vt 0.06137401 0.64977685
vt 0.06086896 0.93884637
vt 0.00990198 0.93849633
vt 0.06137401 0.64977685
vt 0.23503799 0.65036186
vt 0.23224916 0.65321723
vt 0.06416284 0.65263223
vt 0.23503799 0.65036186
vt 0.23514888 0.93945717
vt 0.23236005 0.93660180
vt 0.23224916 0.65321723
vt 0.23514888 0.93945717
vt 0.06086896 0.93884637
vt 0.06365780 0.93599100
vt 0.23236005 0.93660180
vt 0.06086896 0.93884637
vt 0.06137401 0.64977685
vt 0.06416284 0.65263223
vt 0.06365780 0.93599100
vt 0.06416284 0.65263223
vt 0.23224916 0.65321723
vt 0.22574187 0.65987977
vt 0.07067013 0.65929476
vt 0.23224916 0.65321723
vt 0.23236005 0.93660180
vt 0.22585276 0.92993926
vt 0.22574187 0.65987977
vt 0.23236005 0.93660180
vt 0.06365780 0.93599100
vt 0.07016509 0.92932846
vt 0.22585276 0.92993926
vt 0.06365780 0.93599100
vt 0.06416284 0.65263223
vt 0.07067013 0.65929476
vt 0.07016509 0.92932846
vt 0.07067013 0.65929476
vt 0.22574187 0.65987977
vt 0.14810746 0.79461056
vt 0.22574187 0.65987977
vt 0.22585276 0.92993926
vt 0.14810746 0.79461056
vt 0.22585276 0.92993926
vt 0.07016509 0.92932846
vt 0.14810746 0.79461056
vt 0.07016509 0.92932846
vt 0.07067013 0.65929476
vt 0.14810746 0.79461056
vt 0.23503799 0.65036186
vt 0.27836104 0.65076757
vt 0.27904528 0.93939845
vt 0.23514888 0.93945717
vt 0.27836104 0.65076757
vt 0.44278052 0.65037607
vt 0.43999168 0.65323145
vt 0.28114987 0.65362295
vt 0.44278052 0.65037607
vt 0.44377541 0.93875964
vt 0.44098657 0.93590427
vt 0.43999168 0.65323145
vt 0.44377541 0.93875964
vt 0.27904528 0.93939845
vt 0.28183412 0.93654308
vt 0.44098657 0.93590427
vt 0.27904528 0.93939845
vt 0.27836104 0.65076757
vt 0.28114987 0.65362295
vt 0.28183412 0.93654308
vt 0.28114987 0.65362295
vt 0.43999168 0.65323145
vt 0.43348439 0.65989399
vt 0.28765716 0.66028549
vt 0.43999168 0.65323145
vt 0.44098657 0.93590427
vt 0.43447928 0.92924173
vt 0.43348439 0.65989399
vt 0.44098657 0.93590427
vt 0.28183412 0.93654308
vt 0.28834141 0.92988054
vt 0.43447928 0.92924173
vt 0.28183412 0.93654308
vt 0.28114987 0.65362295
vt 0.28765716 0.66028549
vt 0.28834141 0.92988054
vt 0.28765716 0.66028549
vt 0.43348439 0.65989399
vt 0.36099056 0.79482544
vt 0.43348439 0.65989399
vt 0.43447928 0.92924173
vt 0.36099056 0.79482544
vt 0.43447928 0.92924173
vt 0.28834141 0.92988054
vt 0.36099056 0.79482544
vt 0.28834141 0.92988054
vt 0.28765716 0.66028549
vt 0.36099056 0.79482544
vt 0.44278052 0.65037607
vt 0.49027394 0.64978363
vt 0.49051158 0.93851368
vt 0.44377541 0.93875964
vt 0.00990198 0.93849633
vt 0.06086896 0.93884637
vt 0.06183861 0.99027153
vt 0.00986429 0.99027153
vt 0.06086896 0.93884637
vt 0.23514888 0.93945717
vt 0.23610995 0.99027153
vt 0.06183861 0.99027153
vt 0.23514888 0.93945717
vt 0.27904528 0.93939845
vt 0.27962878 0.99027153
vt 0.23610995 0.99027153
vt 0.27904528 0.93939845
vt 0.44377541 0.93875964
vt 0.44375730 0.99027153
vt 0.27962878 0.99027153
vt 0.44377541 0.93875964
vt 0.49051158 0.93851368
vt 0.49047389 0.99027153
vt 0.44375730 0.99027153
vt 0.84995093 0.36030211
vt 0.81374226 0.36036079
vt 0.81377604 0.32564762
vt 0.85010343 0.32564762
vt 0.81374226 0.36036079
vt 0.68753471 0.35995952
vt 0.68719055 0.32564762
vt 0.81377604 0.32564762
vt 0.68753471 0.35995952
vt 0.66104002 0.35971312
vt 0.66037623 0.32564762
vt 0.68719055 0.32564762
vt 0.66104002 0.35971312
vt 0.53925217 0.35999140
vt 0.53856847 0.32564762
vt 0.66037623 0.32564762
vt 0.53925217 0.35999140
vt 0.50904255 0.36037628
vt 0.50918079 0.32564762
vt 0.53856847 0.32564762
vt 0.85000149 0.53591559
vt 0.81445174 0.53559440
vt 0.81374226 0.36036079
vt 0.84995093 0.36030211
vt 0.81171528 0.36227655
vt 0.68955501 0.36187347
vt 0.68753471 0.35995952
vt 0.81374226 0.36036079
vt 0.68955501 0.36187347
vt 0.69006738 0.53325470
vt 0.68804040 0.53517045
vt 0.68753471 0.35995952
vt 0.69006738 0.53325470
vt 0.81244223 0.53365503
vt 0.81445174 0.53559440
vt 0.68804040 0.53517045
vt 0.81244223 0.53365503
vt 0.81171528 0.36227655
vt 0.81374226 0.36036079
vt 0.81445174 0.53559440
vt 0.80698567 0.36674663
vt 0.69428462 0.36634356
vt 0.68955501 0.36187347
vt 0.81171528 0.36227655
vt 0.69428462 0.36634356
vt 0.69479700 0.52878461
vt 0.69006738 0.53325470
vt 0.68955501 0.36187347
vt 0.69479700 0.52878461
vt 0.80771262 0.52918495
vt 0.81244223 0.53365503
vt 0.69006738 0.53325470
vt 0.80771262 0.52918495
vt 0.80698567 0.36674663
vt 0.81171528 0.36227655
vt 0.81244223 0.53365503
vt 0.75094497 0.44776494
vt 0.69428462 0.36634356
vt 0.80698567 0.36674663
vt 0.75094497 0.44776494
vt 0.69479700 0.52878461
vt 0.69428462 0.36634356
vt 0.75094497 0.44776494
vt 0.80771262 0.52918495
vt 0.69479700 0.52878461
vt 0.75094497 0.44776494
vt 0.80698567 0.36674663
vt 0.80771262 0.52918495
vt 0.68804040 0.53517045
vt 0.66112548 0.53523634
vt 0.66104002 0.35971312
vt 0.68753471 0.35995952
vt 0.65901210 0.36162255
vt 0.54132277 0.36190594
vt 0.53925217 0.35999140
vt 0.66104002 0.35971312
vt 0.54132277 0.36190594
vt 0.54096623 0.53375235
vt 0.53889563 0.53571610
vt 0.53925217 0.35999140
vt 0.54096623 0.53375235
vt 0.65911535 0.53332059
vt 0.66112548 0.53523634
vt 0.53889563 0.53571610
vt 0.65911535 0.53332059
vt 0.65901210 0.36162255
vt 0.66104002 0.35971312
vt 0.66112548 0.53523634
vt 0.65418070 0.36609263
vt 0.54615417 0.36637602
vt 0.54132277 0.36190594
vt 0.65901210 0.36162255
vt 0.54615417 0.36637602
vt 0.54579763 0.52928227
vt 0.54096623 0.53375235
vt 0.54132277 0.36190594
vt 0.54579763 0.52928227
vt 0.65428395 0.52885050
vt 0.65911535 0.53332059
vt 0.54096623 0.53375235
vt 0.65428395 0.52885050
vt 0.65418070 0.36609263
vt 0.65901210 0.36162255
vt 0.65911535 0.53332059
vt 0.60010411 0.44765036
vt 0.54615417 0.36637602
vt 0.65418070 0.36609263
vt 0.60010411 0.44765036
vt 0.54579763 0.52928227
vt 0.54615417 0.36637602
vt 0.60010411 0.44765036
vt 0.65428395 0.52885050
vt 0.54579763 0.52928227
vt 0.60010411 0.44765036
vt 0.65418070 0.36609263
vt 0.65428395 0.52885050
vt 0.53889563 0.53571610
vt 0.50908838 0.53589124
vt 0.50904255 0.36037628
vt 0.53925217 0.35999140
vt 0.85018778 0.57175755
vt 0.81418127 0.57128417
vt 0.81445174 0.53559440
vt 0.85000149 0.53591559
vt 0.81418127 0.57128417
vt 0.68743536 0.57106940
vt 0.68804040 0.53517045
vt 0.81445174 0.53559440
vt 0.68743536 0.57106940
vt 0.66043457 0.57150013
vt 0.66112548 0.53523634
vt 0.68804040 0.53517045
vt 0.66043457 0.57150013
vt 0.53839721 0.57184167
vt 0.53889563 0.53571610
vt 0.66112548 0.53523634
vt 0.53839721 0.57184167
vt 0.50925725 0.57165390
vt 0.50908838 0.53589124
vt 0.53889563 0.53571610
vt 0.85026175 0.73426690
vt 0.81358269 0.73389997
vt 0.81418127 0.57128417
vt 0.85018778 0.57175755
vt 0.81215986 0.57326796
vt 0.68943751 0.57309367
vt 0.68743536 0.57106940
vt 0.81418127 0.57128417
vt 0.68943751 0.57309367
vt 0.68919907 0.73211180
vt 0.68723375 0.73405600
vt 0.68743536 0.57106940
vt 0.68919907 0.73211180
vt 0.81155572 0.73195577
vt 0.81358269 0.73389997
vt 0.68723375 0.73405600
vt 0.81155572 0.73195577
vt 0.81215986 0.57326796
vt 0.81418127 0.57128417
vt 0.81358269 0.73389997
vt 0.80743025 0.57780443
vt 0.69416712 0.57763015
vt 0.68943751 0.57309367
vt 0.81215986 0.57326796
vt 0.69416712 0.57763015
vt 0.69392868 0.72757532
vt 0.68919907 0.73211180
vt 0.68943751 0.57309367
vt 0.69392868 0.72757532
vt 0.80682610 0.72741929
vt 0.81155572 0.73195577
vt 0.68919907 0.73211180
vt 0.80682610 0.72741929
vt 0.80743025 0.57780443
vt 0.81215986 0.57326796
vt 0.81155572 0.73195577
vt 0.75058804 0.65260730
vt 0.69416712 0.57763015
vt 0.80743025 0.57780443
vt 0.75058804 0.65260730
vt 0.69392868 0.72757532
vt 0.69416712 0.57763015
vt 0.75058804 0.65260730
vt 0.80682610 0.72741929
vt 0.69392868 0.72757532
vt 0.75058804 0.65260730
vt 0.80743025 0.57780443
vt 0.80682610 0.72741929
vt 0.68723375 0.73405600
vt 0.66065810 0.73454702
vt 0.66043457 0.57150013
vt 0.68743536 0.57106940
vt 0.65836397 0.57344434
vt 0.54039539 0.57378588
vt 0.53839721 0.57184167
vt 0.66043457 0.57150013
vt 0.54039539 0.57378588
vt 0.54100019 0.73260064
vt 0.53892959 0.73461049
vt 0.53839721 0.57184167
vt 0.54100019 0.73260064
vt 0.65858750 0.73254843
vt 0.66065810 0.73454702
vt 0.53892959 0.73461049
vt 0.65858750 0.73254843
vt 0.65836397 0.57344434
vt 0.66043457 0.57150013
vt 0.66065810 0.73454702
vt 0.65353257 0.57798081
vt 0.54522679 0.57832236
vt 0.54039539 0.57378588
vt 0.65836397 0.57344434
vt 0.54522679 0.57832236
vt 0.54583159 0.72806416
vt 0.54100019 0.73260064
vt 0.54039539 0.57378588
vt 0.54583159 0.72806416
vt 0.65375610 0.72801195
vt 0.65858750 0.73254843
vt 0.54100019 0.73260064
vt 0.65375610 0.72801195
vt 0.65353257 0.57798081
vt 0.65836397 0.57344434
vt 0.65858750 0.73254843
vt 0.59958676 0.65309482
vt 0.54522679 0.57832236
vt 0.65353257 0.57798081
vt 0.59958676 0.65309482
vt 0.54583159 0.72806416
vt 0.54522679 0.57832236
vt 0.59958676 0.65309482
vt 0.65375610 0.72801195
vt 0.54583159 0.72806416
vt 0.59958676 0.65309482
vt 0.65353257 0.57798081
vt 0.65375610 0.72801195
vt 0.53892959 0.73461049
vt 0.50932430 0.73413312
vt 0.50925725 0.57165390
vt 0.53839721 0.57184167
vt 0.85012491 0.76463999
vt 0.81412473 0.76453514
vt 0.81358269 0.73389997
vt 0.85026175 0.73426690
vt 0.81412473 0.76453514
vt 0.68790566 0.76500018
vt 0.68723375 0.73405600
vt 0.81358269 0.73389997
vt 0.68790566 0.76500018
vt 0.66123003 0.76527007
vt 0.66065810 0.73454702
vt 0.68723375 0.73405600
vt 0.66123003 0.76527007
vt 0.53923740 0.76500964
vt 0.53892959 0.73461049
vt 0.66065810 0.73454702
vt 0.53923740 0.76500964
vt 0.50920026 0.76454075
vt 0.50932430 0.73413312
vt 0.53892959 0.73461049
vt 0.84995947 0.95666888
vt 0.81447634 0.95690174
vt 0.81412473 0.76453514
vt 0.85012491 0.76463999
vt 0.81210083 0.76651044
vt 0.68993264 0.76689959
vt 0.68790566 0.76500018
vt 0.81412473 0.76453514
vt 0.68993264 0.76689959
vt 0.68985204 0.95540863
vt 0.68782507 0.95730504
vt 0.68790566 0.76500018
vt 0.68985204 0.95540863
vt 0.81246790 0.95500233
vt 0.81447634 0.95690174
vt 0.68782507 0.95730504
vt 0.81246790 0.95500233
vt 0.81210083 0.76651044
vt 0.81412473 0.76453514
vt 0.81447634 0.95690174
vt 0.80737122 0.77094240
vt 0.69466226 0.77133155
vt 0.68993264 0.76689959
vt 0.81210083 0.76651044
vt 0.69466226 0.77133155
vt 0.69458166 0.95097668
vt 0.68985204 0.95540863
vt 0.68993264 0.76689959
vt 0.69458166 0.95097668
vt 0.80773829 0.95057037
vt 0.81246790 0.95500233
vt 0.68985204 0.95540863
vt 0.80773829 0.95057037
vt 0.80737122 0.77094240
vt 0.81210083 0.76651044
vt 0.81246790 0.95500233
vt 0.75108835 0.86095525
vt 0.69466226 0.77133155
vt 0.80737122 0.77094240
vt 0.75108835 0.86095525
vt 0.69458166 0.95097668
vt 0.69466226 0.77133155
vt 0.75108835 0.86095525
vt 0.80773829 0.95057037
vt 0.69458166 0.95097668
vt 0.75108835 0.86095525
vt 0.80737122 0.77094240
vt 0.80773829 0.95057037
vt 0.68782507 0.95730504
vt 0.66080424 0.95726638
vt 0.66123003 0.76527007
vt 0.68790566 0.76500018
vt 0.65924167 0.76716948
vt 0.54130800 0.76690905
vt 0.53923740 0.76500964
vt 0.66123003 0.76527007
vt 0.54130800 0.76690905
vt 0.54056933 0.95494463
vt 0.53854506 0.95684404
vt 0.53923740 0.76500964
vt 0.54056933 0.95494463
vt 0.65873364 0.95536957
vt 0.66080424 0.95726638
vt 0.53854506 0.95684404
vt 0.65873364 0.95536957
vt 0.65924167 0.76716948
vt 0.66123003 0.76527007
vt 0.66080424 0.95726638
vt 0.65441027 0.77160144
vt 0.54613940 0.77134101
vt 0.54130800 0.76690905
vt 0.65924167 0.76716948
vt 0.54613940 0.77134101
vt 0.54540073 0.95051268
vt 0.54056933 0.95494463
vt 0.54130800 0.76690905
vt 0.54540073 0.95051268
vt 0.65390224 0.95093761
vt 0.65873364 0.95536957
vt 0.54056933 0.95494463
vt 0.65390224 0.95093761
vt 0.65441027 0.77160144
vt 0.65924167 0.76716948
vt 0.65873364 0.95536957
vt 0.59996316 0.86109818
vt 0.54613940 0.77134101
vt 0.65441027 0.77160144
vt 0.59996316 0.86109818
vt 0.54540073 0.95051268
vt 0.54613940 0.77134101
vt 0.59996316 0.86109818
vt 0.65390224 0.95093761
vt 0.54540073 0.95051268
vt 0.59996316 0.86109818
vt 0.65441027 0.77160144
vt 0.65390224 0.95093761
vt 0.53854506 0.95684404
vt 0.50905029 0.95668043
vt 0.50920026 0.76454075
vt 0.53923740 0.76500964
vt 0.84998571 0.99075928
vt 0.81379013 0.99075928
vt 0.81447634 0.95690174
vt 0.84995947 0.95666888
vt 0.81379013 0.99075928
vt 0.68719524 0.99075928
vt 0.68782507 0.95730504
vt 0.81447634 0.95690174
vt 0.68719524 0.99075928
vt 0.66037102 0.99075928
vt 0.66080424 0.95726638
vt 0.68782507 0.95730504
vt 0.66037102 0.99075928
vt 0.53855649 0.99075928
vt 0.53854506 0.95684404
vt 0.66080424 0.95726638
vt 0.53855649 0.99075928
vt 0.50907407 0.99075928
vt 0.50905029 0.95668043
vt 0.53854506 0.95684404
vt 0.00969520 0.01754097
vt 0.00830078 0.01611328
vt 0.06185798 0.01611328
vt 0.06185798 0.01754097
vt 0.85010343 0.32564762
vt 0.81377604 0.32564762
vt 0.81377604 0.32470703
vt 0.85107422 0.32470703
vt 0.88330078 0.99169922
vt 0.98388672 0.99169922
vt 0.98388672 0.88361105
vt 0.88330078 0.88361105
vt 0.06185798 0.01754097
vt 0.06185798 0.01611328
vt 0.23611760 0.01611328
vt 0.23611760 0.01754097
vt 0.81377604 0.32564762
vt 0.68719055 0.32564762
vt 0.68719055 0.32470703
vt 0.81377604 0.32470703
vt 0.88330078 0.88361105
vt 0.98388672 0.88361105
vt 0.98388672 0.53192346
vt 0.88330078 0.53192346
vt 0.23611760 0.01754097
vt 0.23611760 0.01611328
vt 0.27962176 0.01611328
vt 0.27962176 0.01754097
vt 0.68719055 0.32564762
vt 0.66037623 0.32564762
vt 0.66037623 0.32470703
vt 0.68719055 0.32470703
vt 0.88330078 0.53192346
vt 0.98388672 0.53192346
vt 0.98388672 0.44412414
vt 0.88330078 0.44412414
vt 0.27962176 0.01754097
vt 0.27962176 0.01611328
vt 0.44373831 0.01611328
vt 0.44373831 0.01754097
vt 0.66037623 0.32564762
vt 0.53856847 0.32564762
vt 0.53856847 0.32470703
vt 0.66037623 0.32470703
vt 0.88330078 0.44412414
vt 0.98388672 0.44412414
vt 0.98388672 0.11290711
vt 0.88330078 0.11290711
vt 0.44373831 0.01754097
vt 0.44373831 0.01611328
vt 0.49169922 0.01611328
vt 0.49030480 0.01754097
vt 0.53856847 0.32564762
vt 0.50918079 0.32564762
vt 0.50830078 0.32470703
vt 0.53856847 0.32470703
vt 0.88330078 0.11290711
vt 0.98388672 0.11290711
vt 0.98388672 0.01611328
vt 0.88330078 0.01611328
vt 0.49030480 0.01754097
vt 0.49169922 0.01611328
vt 0.49191826 0.07024547
vt 0.49052384 0.07024547
vt 0.50918079 0.32564762
vt 0.50904255 0.36037628
vt 0.50830078 0.36037628
vt 0.50830078 0.32470703
vt 0.88330078 0.01611328
vt 0.98388672 0.01611328
vt 0.98388672 0.07024547
vt 0.88330078 0.07024547
vt 0.49052384 0.07024547
vt 0.49191826 0.07024547
vt 0.49184564 0.33172175
vt 0.49045122 0.33172175
vt 0.50904255 0.36037628
vt 0.50908838 0.53589124
vt 0.50830078 0.53589124
vt 0.50830078 0.36037628
vt 0.88330078 0.07024547
vt 0.98388672 0.07024547
vt 0.98388672 0.33172175
vt 0.88330078 0.33172175
vt 0.49045122 0.33172175
vt 0.49184564 0.33172175
vt 0.49157806 0.37438796
vt 0.49018364 0.37438796
vt 0.50908838 0.53589124
vt 0.50925725 0.57165390
vt 0.50837724 0.57165390
vt 0.50830078 0.53589124
vt 0.88330078 0.33172175
vt 0.98388672 0.33172175
vt 0.98388672 0.37438796
vt 0.88330078 0.37438796
vt 0.49018364 0.37438796
vt 0.49157806 0.37438796
vt 0.49147181 0.61301457
vt 0.49007739 0.61301457
vt 0.50925725 0.57165390
vt 0.50932430 0.73413312
vt 0.50844430 0.73413312
vt 0.50837724 0.57165390
vt 0.88330078 0.37438796
vt 0.98388672 0.37438796
vt 0.98388672 0.61301457
vt 0.88330078 0.61301457
vt 0.49007739 0.61301457
vt 0.49147181 0.61301457
vt 0.49166836 0.64978363
vt 0.49027394 0.64978363
vt 0.50932430 0.73413312
vt 0.50920026 0.76454075
vt 0.50832026 0.76454075
vt 0.50844430 0.73413312
vt 0.88330078 0.61301457
vt 0.98388672 0.61301457
vt 0.98388672 0.64978363
vt 0.88330078 0.64978363
vt 0.49027394 0.64978363
vt 0.49166836 0.64978363
vt 0.49190600 0.93851368
vt 0.49051158 0.93851368
vt 0.50920026 0.76454075
vt 0.50905029 0.95668043
vt 0.50830078 0.95668043
vt 0.50832026 0.76454075
vt 0.88330078 0.64978363
vt 0.98388672 0.64978363
vt 0.98388672 0.93851368
vt 0.88330078 0.93851368
vt 0.49051158 0.93851368
vt 0.49190600 0.93851368
vt 0.49186831 0.99169922
vt 0.49047389 0.99027153
vt 0.50905029 0.95668043
vt 0.50907407 0.99075928
vt 0.50830078 0.99169922
vt 0.50830078 0.95668043
vt 0.88330078 0.93851368
vt 0.98388672 0.93851368
vt 0.98388672 0.99169922
vt 0.88330078 0.99169922
vt 0.49047389 0.99027153
vt 0.49186831 0.99169922
vt 0.44375730 0.99169922
vt 0.44375730 0.99027153
vt 0.50907407 0.99075928
vt 0.53855649 0.99075928
vt 0.53855649 0.99169922
vt 0.50830078 0.99169922
vt 0.88330078 0.01577203
vt 0.98388672 0.01577203
vt 0.98388672 0.11286879
vt 0.88330078 0.11286879
vt 0.44375730 0.99027153
vt 0.44375730 0.99169922
vt 0.27962878 0.99169922
vt 0.27962878 0.99027153
vt 0.53855649 0.99075928
vt 0.66037102 0.99075928
vt 0.66037102 0.99169922
vt 0.53855649 0.99169922
vt 0.88330078 0.11286879
vt 0.98388672 0.11286879
vt 0.98388672 0.44410998
vt 0.88330078 0.44410998
vt 0.27962878 0.99027153
vt 0.27962878 0.99169922
vt 0.23610995 0.99169922
vt 0.23610995 0.99027153
vt 0.66037102 0.99075928
vt 0.68719524 0.99075928
vt 0.68719524 0.99169922
vt 0.66037102 0.99169922
vt 0.88330078 0.44410998
vt 0.98388672 0.44410998
vt 0.98388672 0.53193889
vt 0.88330078 0.53193889
vt 0.23610995 0.99027153
vt 0.23610995 0.99169922
vt 0.06183861 0.99169922
vt 0.06183861 0.99027153
vt 0.68719524 0.99075928
vt 0.81379013 0.99075928
vt 0.81379013 0.99169922
vt 0.68719524 0.99169922
vt 0.88330078 0.53193889
vt 0.98388672 0.53193889
vt 0.98388672 0.88365015
vt 0.88330078 0.88365015
vt 0.06183861 0.99027153
vt 0.06183861 0.99169922
vt 0.00846987 0.99169922
vt 0.00986429 0.99027153
vt 0.81379013 0.99075928
vt 0.84998571 0.99075928
vt 0.85095650 0.99169922
vt 0.81379013 0.99169922
vt 0.88330078 0.88365015
vt 0.98388672 0.88365015
vt 0.98388672 0.99135796
vt 0.88330078 0.99135796
vt 0.00986429 0.99027153
vt 0.00846987 0.99169922
vt 0.00850756 0.93849633
vt 0.00990198 0.93849633
vt 0.84998571 0.99075928
vt 0.84995947 0.95666888
vt 0.85093026 0.95666888
vt 0.85095650 0.99169922
vt 0.88330078 0.99169922
vt 0.98388672 0.99169922
vt 0.98388672 0.93849633
vt 0.88330078 0.93849633
vt 0.00990198 0.93849633
vt 0.00850756 0.93849633
vt 0.00826992 0.64990355
vt 0.00966434 0.64990355
vt 0.84995947 0.95666888
vt 0.85012491 0.76463999
vt 0.85107422 0.76463999
vt 0.85093026 0.95666888
vt 0.88330078 0.93849633
vt 0.98388672 0.93849633
vt 0.98388672 0.64990355
vt 0.88330078 0.64990355
vt 0.00966434 0.64990355
vt 0.00826992 0.64990355
vt 0.00807337 0.61320410
vt 0.00946779 0.61320410
vt 0.85012491 0.76463999
vt 0.85026175 0.73426690
vt 0.85107422 0.73426690
vt 0.85107422 0.76463999
vt 0.88330078 0.64990355
vt 0.98388672 0.64990355
vt 0.98388672 0.61320410
vt 0.88330078 0.61320410
vt 0.00946779 0.61320410
vt 0.00807337 0.61320410
vt 0.00817962 0.37454018
vt 0.00957404 0.37454018
vt 0.85026175 0.73426690
vt 0.85018778 0.57175755
vt 0.85107422 0.57175755
vt 0.85107422 0.73426690
vt 0.88330078 0.61320410
vt 0.98388672 0.61320410
vt 0.98388672 0.37454018
vt 0.88330078 0.37454018
vt 0.00957404 0.37454018
vt 0.00817962 0.37454018
vt 0.00844720 0.33175078
vt 0.00984162 0.33175078
vt 0.85018778 0.57175755
vt 0.85000149 0.53591559
vt 0.85097228 0.53591559
vt 0.85107422 0.57175755
vt 0.88330078 0.37454018
vt 0.98388672 0.37454018
vt 0.98388672 0.33175078
vt 0.88330078 0.33175078
vt 0.00984162 0.33175078
vt 0.00844720 0.33175078
vt 0.00851982 0.07013492
vt 0.00991424 0.07013492
vt 0.85000149 0.53591559
vt 0.84995093 0.36030211
vt 0.85092173 0.36030211
vt 0.85097228 0.53591559
vt 0.88330078 0.33175078
vt 0.98388672 0.33175078
vt 0.98388672 0.07013492
vt 0.88330078 0.07013492
vt 0.00991424 0.07013492
vt 0.00851982 0.07013492
vt 0.00830078 0.01611328
vt 0.00969520 0.01754097
vt 0.84995093 0.36030211
vt 0.85010343 0.32564762
vt 0.85107422 0.32470703
vt 0.85092173 0.36030211
vt 0.88330078 0.07013492
vt 0.98388672 0.07013492
vt 0.98388672 0.01611328
vt 0.88330078 0.01611328
vt 0.53237305 0.03955078
vt 0.53237305 0.04397899
vt 0.54118042 0.04397899
vt 0.54118042 0.03955078
vt 0.54118042 0.03955078
vt 0.54118042 0.04397899
vt 0.54998779 0.04397899
vt 0.54998779 0.03955078
vt 0.54998779 0.03955078
vt 0.54998779 0.04397899
vt 0.55879517 0.04397899
vt 0.55879517 0.03955078
vt 0.55879517 0.03955078
vt 0.55879517 0.04397899
vt 0.56760254 0.04397899
vt 0.56760254 0.03955078
vt 0.56760254 0.03955078
vt 0.56760254 0.04397899
vt 0.57640991 0.04397899
vt 0.57640991 0.03955078
vt 0.57640991 0.03955078
vt 0.57640991 0.04397899
vt 0.58521729 0.04397899
vt 0.58521729 0.03955078
vt 0.58521729 0.03955078
vt 0.58521729 0.04397899
vt 0.59402466 0.04397899
vt 0.59402466 0.03955078
vt 0.59402466 0.03955078
vt 0.59402466 0.04397899
vt 0.60283203 0.04397899
vt 0.60283203 0.03955078
vt 0.53237305 0.03955078
vt 0.53237305 0.04397899
vt 0.54118042 0.04397899
vt 0.54118042 0.03955078
vt 0.54118042 0.03955078
vt 0.54118042 0.04397899
vt 0.54998779 0.04397899
vt 0.54998779 0.03955078
vt 0.54998779 0.03955078
vt 0.54998779 0.04397899
vt 0.55879517 0.04397899
vt 0.55879517 0.03955078
vt 0.55879517 0.03955078
vt 0.55879517 0.04397899
vt 0.56760254 0.04397899
vt 0.56760254 0.03955078
vt 0.56760254 0.03955078
vt 0.56760254 0.04397899
vt 0.57640991 0.04397899
vt 0.57640991 0.03955078
vt 0.53237305 0.04397899
vt 0.53237305 0.29195851
vt 0.54118042 0.29195851
vt 0.54118042 0.04397899
vt 0.54118042 0.04397899
vt 0.54118042 0.29195851
vt 0.54998779 0.29195851
vt 0.54998779 0.04397899
vt 0.54998779 0.04397899
vt 0.54998779 0.29195851
vt 0.55879517 0.29195851
vt 0.55879517 0.04397899
vt 0.55879517 0.04397899
vt 0.55879517 0.29195851
vt 0.56760254 0.29195851
vt 0.56760254 0.04397899
vt 0.56760254 0.04397899
vt 0.56760254 0.29195851
vt 0.57640991 0.29195851
vt 0.57640991 0.04397899
vt 0.57640991 0.04397899
vt 0.57640991 0.29195851
vt 0.58521729 0.29195851
vt 0.58521729 0.04397899
vt 0.58521729 0.04397899
vt 0.58521729 0.29195851
vt 0.59402466 0.29195851
vt 0.59402466 0.04397899
vt 0.59402466 0.04397899
vt 0.59402466 0.29195851
vt 0.60283203 0.29195851
vt 0.60283203 0.04397899
vt 0.53237305 0.04397899
vt 0.53237305 0.29195851
vt 0.54118042 0.29195851
vt 0.54118042 0.04397899
vt 0.54118042 0.04397899
vt 0.54118042 0.29195851
vt 0.54998779 0.29195851
vt 0.54998779 0.04397899
vt 0.54998779 0.04397899
vt 0.54998779 0.29195851
vt 0.55879517 0.29195851
vt 0.55879517 0.04397899
vt 0.55879517 0.04397899
vt 0.55879517 0.29195851
vt 0.56760254 0.29195851
vt 0.56760254 0.04397899
vt 0.56760254 0.04397899
vt 0.56760254 0.29195851
vt 0.57640991 0.29195851
vt 0.57640991 0.04397899
vt 0.53237305 0.29195851
vt 0.53237305 0.29638672
vt 0.54118042 0.29638672
vt 0.54118042 0.29195851
vt 0.54118042 0.29195851
vt 0.54118042 0.29638672
vt 0.54998779 0.29638672
vt 0.54998779 0.29195851
vt 0.54998779 0.29195851
vt 0.54998779 0.29638672
vt 0.55879517 0.29638672
vt 0.55879517 0.29195851
vt 0.55879517 0.29195851
vt 0.55879517 0.29638672
vt 0.56760254 0.29638672
vt 0.56760254 0.29195851
vt 0.56760254 0.29195851
vt 0.56760254 0.29638672
vt 0.57640991 0.29638672
vt 0.57640991 0.29195851
vt 0.57640991 0.29195851
vt 0.57640991 0.29638672
vt 0.58521729 0.29638672
vt 0.58521729 0.29195851
vt 0.58521729 0.29195851
vt 0.58521729 0.29638672
vt 0.59402466 0.29638672
vt 0.59402466 0.29195851
vt 0.59402466 0.29195851
vt 0.59402466 0.29638672
vt 0.60283203 0.29638672
vt 0.60283203 0.29195851
vt 0.53237305 0.29195851
vt 0.53237305 0.29638672
vt 0.54118042 0.29638672
vt 0.54118042 0.29195851
vt 0.54118042 0.29195851
vt 0.54118042 0.29638672
vt 0.54998779 0.29638672
vt 0.54998779 0.29195851
vt 0.54998779 0.29195851
vt 0.54998779 0.29638672
vt 0.55879517 0.29638672
vt 0.55879517 0.29195851
vt 0.55879517 0.29195851
vt 0.55879517 0.29638672
vt 0.56760254 0.29638672
vt 0.56760254 0.29195851
vt 0.56760254 0.29195851
vt 0.56760254 0.29638672
vt 0.57640991 0.29638672
vt 0.57640991 0.29195851
vt 0.56404572 0.20018999
vt 0.55947266 0.20377635
vt 0.54459791 0.21585620
vt 0.54459791 0.21585620
vt 0.55947266 0.20377635
vt 0.56404572 0.20018999
vt 0.56404572 0.20018999
vt 0.54459791 0.21585620
vt 0.53843658 0.24501953
vt 0.53843658 0.24501953
vt 0.54459791 0.21585620
vt 0.56404572 0.20018999
vt 0.56404572 0.20018999
vt 0.53843658 0.24501953
vt 0.54459791 0.27418286
vt 0.54459791 0.27418286
vt 0.53843658 0.24501953
vt 0.56404572 0.20018999
vt 0.56404572 0.20018999
vt 0.54459791 0.27418286
vt 0.55947266 0.28626271
vt 0.55947266 0.28626271
vt 0.54459791 0.27418286
vt 0.56404572 0.20018999
vt 0.56404572 0.20018999
vt 0.55947266 0.28626271
vt 0.57434741 0.27418286
vt 0.57434741 0.27418286
vt 0.55947266 0.28626271
vt 0.56404572 0.20018999
vt 0.56404572 0.20018999
vt 0.57434741 0.27418286
vt 0.58050873 0.24501953
vt 0.58050873 0.24501953
vt 0.57434741 0.27418286
vt 0.56404572 0.20018999
vt 0.56404572 0.20018999
vt 0.58050873 0.24501953
vt 0.57434741 0.21585620
vt 0.57434741 0.21585620
vt 0.58050873 0.24501953
vt 0.56404572 0.20018999
vt 0.56404572 0.20018999
vt 0.57434741 0.21585620
vt 0.58462448 0.17926953
vt 0.58462448 0.17926953
vt 0.57434741 0.21585620
vt 0.56404572 0.20018999
vt 0.58462448 0.17926953
vt 0.60825195 0.17926953
vt 0.60825195 0.16283203
vt 0.60825195 0.16283203
vt 0.60825195 0.17926953
vt 0.58462448 0.17926953
vt 0.58462448 0.17926953
vt 0.60825195 0.16283203
vt 0.58157578 0.16283203
vt 0.58157578 0.16283203
vt 0.60825195 0.16283203
vt 0.58462448 0.17926953
vt 0.58462448 0.17926953
vt 0.58157578 0.16283203
vt 0.56404572 0.20018999
vt 0.56404572 0.20018999
vt 0.58157578 0.16283203
vt 0.58462448 0.17926953
vt 0.53237305 0.03955078
vt 0.53237305 0.04397899
vt 0.54118042 0.04397899
vt 0.54118042 0.03955078
vt 0.54118042 0.03955078
vt 0.54118042 0.04397899
vt 0.54998779 0.04397899
vt 0.54998779 0.03955078
vt 0.54998779 0.03955078
vt 0.54998779 0.04397899
vt 0.55879517 0.04397899
vt 0.55879517 0.03955078
vt 0.55879517 0.03955078
vt 0.55879517 0.04397899
vt 0.56760254 0.04397899
vt 0.56760254 0.03955078
vt 0.56760254 0.03955078
vt 0.56760254 0.04397899
vt 0.57640991 0.04397899
vt 0.57640991 0.03955078
vt 0.57640991 0.03955078
vt 0.57640991 0.04397899
vt 0.58521729 0.04397899
vt 0.58521729 0.03955078
vt 0.58521729 0.03955078
vt 0.58521729 0.04397899
vt 0.59402466 0.04397899
vt 0.59402466 0.03955078
vt 0.59402466 0.03955078
vt 0.59402466 0.04397899
vt 0.60283203 0.04397899
vt 0.60283203 0.03955078
vt 0.53237305 0.03955078
vt 0.53237305 0.04397899
vt 0.54118042 0.04397899
vt 0.54118042 0.03955078
vt 0.54118042 0.03955078
vt 0.54118042 0.04397899
vt 0.54998779 0.04397899
vt 0.54998779 0.03955078
vt 0.54998779 0.03955078
vt 0.54998779 0.04397899
vt 0.55879517 0.04397899
vt 0.55879517 0.03955078
vt 0.55879517 0.03955078
vt 0.55879517 0.04397899
vt 0.56760254 0.04397899
vt 0.56760254 0.03955078
vt 0.56760254 0.03955078
vt 0.56760254 0.04397899
vt 0.57640991 0.04397899
vt 0.57640991 0.03955078
vt 0.53237305 0.04397899
vt 0.53237305 0.29195851
vt 0.54118042 0.29195851
vt 0.54118042 0.04397899
vt 0.54118042 0.04397899
vt 0.54118042 0.29195851
vt 0.54998779 0.29195851
vt 0.54998779 0.04397899
vt 0.54998779 0.04397899
vt 0.54998779 0.29195851
vt 0.55879517 0.29195851
vt 0.55879517 0.04397899
vt 0.55879517 0.04397899
vt 0.55879517 0.29195851
vt 0.56760254 0.29195851
vt 0.56760254 0.04397899
vt 0.56760254 0.04397899
vt 0.56760254 0.29195851
vt 0.57640991 0.29195851
vt 0.57640991 0.04397899
vt 0.57640991 0.04397899
vt 0.57640991 0.29195851
vt 0.58521729 0.29195851
vt 0.58521729 0.04397899
vt 0.58521729 0.04397899
vt 0.58521729 0.29195851
vt 0.59402466 0.29195851
vt 0.59402466 0.04397899
vt 0.59402466 0.04397899
vt 0.59402466 0.29195851
vt 0.60283203 0.29195851
vt 0.60283203 0.04397899
vt 0.53237305 0.04397899
vt 0.53237305 0.29195851
vt 0.54118042 0.29195851
vt 0.54118042 0.04397899
vt 0.54118042 0.04397899
vt 0.54118042 0.29195851
vt 0.54998779 0.29195851
vt 0.54998779 0.04397899
vt 0.54998779 0.04397899
vt 0.54998779 0.29195851
vt 0.55879517 0.29195851
vt 0.55879517 0.04397899
vt 0.55879517 0.04397899
vt 0.55879517 0.29195851
vt 0.56760254 0.29195851
vt 0.56760254 0.04397899
vt 0.56760254 0.04397899
vt 0.56760254 0.29195851
vt 0.57640991 0.29195851
vt 0.57640991 0.04397899
vt 0.53237305 0.29195851
vt 0.53237305 0.29638672
vt 0.54118042 0.29638672
vt 0.54118042 0.29195851
vt 0.54118042 0.29195851
vt 0.54118042 0.29638672
vt 0.54998779 0.29638672
vt 0.54998779 0.29195851
vt 0.54998779 0.29195851
vt 0.54998779 0.29638672
vt 0.55879517 0.29638672
vt 0.55879517 0.29195851
vt 0.55879517 0.29195851
vt 0.55879517 0.29638672
vt 0.56760254 0.29638672
vt 0.56760254 0.29195851
vt 0.56760254 0.29195851
vt 0.56760254 0.29638672
vt 0.57640991 0.29638672
vt 0.57640991 0.29195851
vt 0.57640991 0.29195851
vt 0.57640991 0.29638672
vt 0.58521729 0.29638672
vt 0.58521729 0.29195851
vt 0.58521729 0.29195851
vt 0.58521729 0.29638672
vt 0.59402466 0.29638672
vt 0.59402466 0.29195851
vt 0.59402466 0.29195851
vt 0.59402466 0.29638672
vt 0.60283203 0.29638672
vt 0.60283203 0.29195851
vt 0.53237305 0.29195851
vt 0.53237305 0.29638672
vt 0.54118042 0.29638672
vt 0.54118042 0.29195851
vt 0.54118042 0.29195851
vt 0.54118042 0.29638672
vt 0.54998779 0.29638672
vt 0.54998779 0.29195851
vt 0.54998779 0.29195851
vt 0.54998779 0.29638672
vt 0.55879517 0.29638672
vt 0.55879517 0.29195851
vt 0.55879517 0.29195851
vt 0.55879517 0.29638672
vt 0.56760254 0.29638672
vt 0.56760254 0.29195851
vt 0.56760254 0.29195851
vt 0.56760254 0.29638672
vt 0.57640991 0.29638672
vt 0.57640991 0.29195851
vt 0.56404572 0.20018999
vt 0.55947266 0.20377635
vt 0.54459791 0.21585620
vt 0.54459791 0.21585620
vt 0.55947266 0.20377635
vt 0.56404572 0.20018999
vt 0.56404572 0.20018999
vt 0.54459791 0.21585620
vt 0.53843658 0.24501953
vt 0.53843658 0.24501953
vt 0.54459791 0.21585620
vt 0.56404572 0.20018999
vt 0.56404572 0.20018999
vt 0.53843658 0.24501953
vt 0.54459791 0.27418286
vt 0.54459791 0.27418286
vt 0.53843658 0.24501953
vt 0.56404572 0.20018999
vt 0.56404572 0.20018999
vt 0.54459791 0.27418286
vt 0.55947266 0.28626271
vt 0.55947266 0.28626271
vt 0.54459791 0.27418286
vt 0.56404572 0.20018999
vt 0.56404572 0.20018999
vt 0.55947266 0.28626271
vt 0.57434741 0.27418286
vt 0.57434741 0.27418286
vt 0.55947266 0.28626271
vt 0.56404572 0.20018999
vt 0.56404572 0.20018999
vt 0.57434741 0.27418286
vt 0.58050873 0.24501953
vt 0.58050873 0.24501953
vt 0.57434741 0.27418286
vt 0.56404572 0.20018999
vt 0.56404572 0.20018999
vt 0.58050873 0.24501953
vt 0.57434741 0.21585620
vt 0.57434741 0.21585620
vt 0.58050873 0.24501953
vt 0.56404572 0.20018999
vt 0.56404572 0.20018999
vt 0.57434741 0.21585620
vt 0.58462448 0.17926953
vt 0.58462448 0.17926953
vt 0.57434741 0.21585620
vt 0.56404572 0.20018999
vt 0.58462448 0.17926953
vt 0.60825195 0.17926953
vt 0.60825195 0.16283203
vt 0.60825195 0.16283203
vt 0.60825195 0.17926953
vt 0.58462448 0.17926953
vt 0.58462448 0.17926953
vt 0.60825195 0.16283203
vt 0.58157578 0.16283203
vt 0.58157578 0.16283203
vt 0.60825195 0.16283203
vt 0.58462448 0.17926953
vt 0.58462448 0.17926953
vt 0.58157578 0.16283203
vt 0.56404572 0.20018999
vt 0.56404572 0.20018999
vt 0.58157578 0.16283203
vt 0.58462448 0.17926953
vt 0.71044922 0.18750000
vt 0.71044922 0.21207669
vt 0.71044922 0.21207669
vt 0.71044922 0.18750000
vt 0.71044922 0.21207669
vt 0.71044922 0.26105557
vt 0.71044922 0.26105557
vt 0.71044922 0.21207669
vt 0.71044922 0.26105557
vt 0.71044922 0.29638672
vt 0.71044922 0.29638672
vt 0.71044922 0.26105557
vt 0.71044922 0.29638672
vt 0.67968750 0.29638672
vt 0.67968750 0.29638672
vt 0.71044922 0.29638672
vt 0.67968750 0.29638672
vt 0.64892578 0.29638672
vt 0.64892578 0.29638672
vt 0.67968750 0.29638672
vt 0.64892578 0.29638672
vt 0.64892578 0.24022191
vt 0.64892578 0.24022191
vt 0.64892578 0.29638672
vt 0.64892578 0.24022191
vt 0.64892578 0.21435327
vt 0.64892578 0.21435327
vt 0.64892578 0.24022191
vt 0.64892578 0.21435327
vt 0.64892578 0.19801984
vt 0.64892578 0.19801984
vt 0.64892578 0.21435327
vt 0.64892578 0.19801984
vt 0.64892578 0.19395358
vt 0.64892578 0.19395358
vt 0.64892578 0.19801984
vt 0.64892578 0.19395358
vt 0.64892578 0.18750000
vt 0.64892578 0.18750000
vt 0.64892578 0.19395358
vt 0.64892578 0.18750000
vt 0.64892578 0.18104642
vt 0.64892578 0.18104642
vt 0.64892578 0.18750000
vt 0.64892578 0.18104642
vt 0.64892578 0.17698016
vt 0.64892578 0.17698016
vt 0.64892578 0.18104642
vt 0.64892578 0.17698016
vt 0.64892578 0.16064673
vt 0.64892578 0.16064673
vt 0.64892578 0.17698016
vt 0.64892578 0.16064673
vt 0.64892578 0.13477809
vt 0.64892578 0.13477809
vt 0.64892578 0.16064673
vt 0.64892578 0.13477809
vt 0.64892578 0.07861328
vt 0.64892578 0.07861328
vt 0.64892578 0.13477809
vt 0.64892578 0.07861328
vt 0.67968750 0.07861328
vt 0.67968750 0.07861328
vt 0.64892578 0.07861328
vt 0.67968750 0.07861328
vt 0.71044922 0.07861328
vt 0.71044922 0.07861328
vt 0.67968750 0.07861328
vt 0.71044922 0.07861328
vt 0.71044922 0.11394443
vt 0.71044922 0.11394443
vt 0.71044922 0.07861328
vt 0.71044922 0.11394443
vt 0.71044922 0.16292331
vt 0.71044922 0.16292331
vt 0.71044922 0.11394443
vt 0.71044922 0.16292331
vt 0.71044922 0.18750000
vt 0.71044922 0.18750000
vt 0.71044922 0.16292331
vt 0.71044922 0.18750000
vt 0.71044922 0.21207669
vt 0.69137983 0.19684144
vt 0.69319264 0.18750000
vt 0.71044922 0.21207669
vt 0.71044922 0.26105557
vt 0.68644607 0.20366069
vt 0.69137983 0.19684144
vt 0.71044922 0.26105557
vt 0.71044922 0.29638672
vt 0.68459973 0.20488773
vt 0.68644607 0.20366069
vt 0.71044922 0.29638672
vt 0.67968750 0.29638672
vt 0.67968750 0.20616629
vt 0.68459973 0.20488773
vt 0.67968750 0.29638672
vt 0.64892578 0.29638672
vt 0.67477527 0.20488773
vt 0.67968750 0.20616629
vt 0.64892578 0.29638672
vt 0.64892578 0.24022191
vt 0.67120961 0.20203009
vt 0.67477527 0.20488773
vt 0.64892578 0.24022191
vt 0.64892578 0.21435327
vt 0.66826905 0.19746767
vt 0.67120961 0.20203009
vt 0.64892578 0.21435327
vt 0.64892578 0.19801984
vt 0.66657767 0.19198327
vt 0.66826905 0.19746767
vt 0.64892578 0.19801984
vt 0.64892578 0.19395358
vt 0.66633529 0.19030119
vt 0.66657767 0.19198327
vt 0.64892578 0.19395358
vt 0.64892578 0.18750000
vt 0.66618236 0.18750000
vt 0.66633529 0.19030119
vt 0.64892578 0.18750000
vt 0.64892578 0.18104642
vt 0.66633529 0.18469881
vt 0.66618236 0.18750000
vt 0.64892578 0.18104642
vt 0.64892578 0.17698016
vt 0.66657767 0.18301673
vt 0.66633529 0.18469881
vt 0.64892578 0.17698016
vt 0.64892578 0.16064673
vt 0.66826905 0.17753233
vt 0.66657767 0.18301673
vt 0.64892578 0.16064673
vt 0.64892578 0.13477809
vt 0.67120961 0.17296991
vt 0.66826905 0.17753233
vt 0.64892578 0.13477809
vt 0.64892578 0.07861328
vt 0.67477527 0.17011227
vt 0.67120961 0.17296991
vt 0.64892578 0.07861328
vt 0.67968750 0.07861328
vt 0.67968750 0.16883371
vt 0.67477527 0.17011227
vt 0.67968750 0.07861328
vt 0.71044922 0.07861328
vt 0.68459973 0.17011227
vt 0.67968750 0.16883371
vt 0.71044922 0.07861328
vt 0.71044922 0.11394443
vt 0.68644607 0.17133931
vt 0.68459973 0.17011227
vt 0.71044922 0.11394443
vt 0.71044922 0.16292331
vt 0.69137983 0.17815856
vt 0.68644607 0.17133931
vt 0.71044922 0.16292331
vt 0.71044922 0.18750000
vt 0.69319264 0.18750000
vt 0.69137983 0.17815856
vt 0.51611328 0.27070313
vt 0.52153320 0.27070313
vt 0.52153320 0.09091797
vt 0.51611328 0.09091797
vt 0.52153320 0.27070313
vt 0.52695313 0.27070313
vt 0.52695313 0.09091797
vt 0.52153320 0.09091797
vt 0.52695313 0.27070313
vt 0.53237305 0.27070313
vt 0.53237305 0.09091797
vt 0.52695313 0.09091797
vt 0.53237305 0.27070313
vt 0.53779297 0.27070313
vt 0.53779297 0.09091797
vt 0.53237305 0.09091797
vt 0.53779297 0.27070313
vt 0.54321289 0.27070313
vt 0.54321289 0.09091797
vt 0.53779297 0.09091797
vt 0.54321289 0.27070313
vt 0.54863281 0.27070313
vt 0.54863281 0.09091797
vt 0.54321289 0.09091797
vt 0.54863281 0.27070313
vt 0.55405273 0.27070313
vt 0.55405273 0.09091797
vt 0.54863281 0.09091797
vt 0.55405273 0.27070313
vt 0.55947266 0.27070313
vt 0.55947266 0.09091797
vt 0.55405273 0.09091797
vt 0.55947266 0.27070313
vt 0.56489258 0.27070313
vt 0.56489258 0.09091797
vt 0.55947266 0.09091797
vt 0.56489258 0.27070313
vt 0.57031250 0.27070313
vt 0.57031250 0.09091797
vt 0.56489258 0.09091797
vt 0.57031250 0.27070313
vt 0.57573242 0.27070313
vt 0.57573242 0.09091797
vt 0.57031250 0.09091797
vt 0.57573242 0.27070313
vt 0.58115234 0.27070313
vt 0.58115234 0.09091797
vt 0.57573242 0.09091797
vt 0.58115234 0.27070313
vt 0.58657227 0.27070313
vt 0.58657227 0.09091797
vt 0.58115234 0.09091797
vt 0.58657227 0.27070313
vt 0.59199219 0.27070313
vt 0.59199219 0.09091797
vt 0.58657227 0.09091797
vt 0.59199219 0.27070313
vt 0.59741211 0.27070313
vt 0.59741211 0.09091797
vt 0.59199219 0.09091797
vt 0.59741211 0.27070313
vt 0.60283203 0.27070313
vt 0.60283203 0.09091797
vt 0.59741211 0.09091797
vt 0.60283203 0.27070313
vt 0.60825195 0.27070313
vt 0.60825195 0.09091797
vt 0.60283203 0.09091797
vt 0.60825195 0.27070313
vt 0.61367187 0.27070313
vt 0.61367187 0.09091797
vt 0.60825195 0.09091797
vt 0.61367187 0.27070313
vt 0.61909180 0.27070313
vt 0.61909180 0.09091797
vt 0.61367187 0.09091797
vt 0.61909180 0.27070313
vt 0.62451172 0.27070313
vt 0.62451172 0.09091797
vt 0.61909180 0.09091797
vt 0.51611328 0.27070313
vt 0.52153320 0.27070313
vt 0.52153320 0.09091797
vt 0.51611328 0.09091797
vt 0.52153320 0.27070313
vt 0.52695313 0.27070313
vt 0.52695313 0.09091797
vt 0.52153320 0.09091797
vt 0.52695313 0.27070313
vt 0.53237305 0.27070313
vt 0.53237305 0.09091797
vt 0.52695313 0.09091797
vt 0.53237305 0.27070313
vt 0.53779297 0.27070313
vt 0.53779297 0.09091797
vt 0.53237305 0.09091797
vt 0.53779297 0.27070313
vt 0.54321289 0.27070313
vt 0.54321289 0.09091797
vt 0.53779297 0.09091797
vt 0.54321289 0.27070313
vt 0.54863281 0.27070313
vt 0.54863281 0.09091797
vt 0.54321289 0.09091797
vt 0.54863281 0.27070313
vt 0.55405273 0.27070313
vt 0.55405273 0.09091797
vt 0.54863281 0.09091797
vt 0.55405273 0.27070313
vt 0.55947266 0.27070313
vt 0.55947266 0.09091797
vt 0.55405273 0.09091797
vt 0.55947266 0.27070313
vt 0.56489258 0.27070313
vt 0.56489258 0.09091797
vt 0.55947266 0.09091797
vt 0.56489258 0.27070313
vt 0.57031250 0.27070313
vt 0.57031250 0.09091797
vt 0.56489258 0.09091797
vt 0.57031250 0.27070313
vt 0.57573242 0.27070313
vt 0.57573242 0.09091797
vt 0.57031250 0.09091797
vt 0.57573242 0.27070313
vt 0.58115234 0.27070313
vt 0.58115234 0.09091797
vt 0.57573242 0.09091797
vt 0.58115234 0.27070313
vt 0.58657227 0.27070313
vt 0.58657227 0.09091797
vt 0.58115234 0.09091797
vt 0.58657227 0.27070313
vt 0.59199219 0.27070313
vt 0.59199219 0.09091797
vt 0.58657227 0.09091797
vt 0.59199219 0.27070313
vt 0.59741211 0.27070313
vt 0.59741211 0.09091797
vt 0.59199219 0.09091797
vt 0.59741211 0.27070313
vt 0.60283203 0.27070313
vt 0.60283203 0.09091797
vt 0.59741211 0.09091797
vt 0.60283203 0.27070313
vt 0.60825195 0.27070313
vt 0.60825195 0.09091797
vt 0.60283203 0.09091797
vt 0.60825195 0.27070313
vt 0.61367187 0.27070313
vt 0.61367187 0.09091797
vt 0.60825195 0.09091797
vt 0.61367187 0.27070313
vt 0.61909180 0.27070313
vt 0.61909180 0.09091797
vt 0.61367187 0.09091797
vt 0.61909180 0.27070313
vt 0.62451172 0.27070313
vt 0.62451172 0.09091797
vt 0.61909180 0.09091797
vt 0.51611328 0.21933594
vt 0.52153320 0.21933594
vt 0.52153320 0.11660156
vt 0.51611328 0.11660156
vt 0.52153320 0.21933594
vt 0.52695313 0.21933594
vt 0.52695313 0.11660156
vt 0.52153320 0.11660156
vt 0.52695313 0.21933594
vt 0.53237305 0.21933594
vt 0.53237305 0.11660156
vt 0.52695313 0.11660156
vt 0.53237305 0.21933594
vt 0.53779297 0.21933594
vt 0.53779297 0.11660156
vt 0.53237305 0.11660156
vt 0.53779297 0.21933594
vt 0.54321289 0.21933594
vt 0.54321289 0.11660156
vt 0.53779297 0.11660156
vt 0.54321289 0.21933594
vt 0.54863281 0.21933594
vt 0.54863281 0.11660156
vt 0.54321289 0.11660156
vt 0.54863281 0.21933594
vt 0.55405273 0.21933594
vt 0.55405273 0.11660156
vt 0.54863281 0.11660156
vt 0.55405273 0.21933594
vt 0.55947266 0.21933594
vt 0.55947266 0.11660156
vt 0.55405273 0.11660156
vt 0.55947266 0.21933594
vt 0.56489258 0.21933594
vt 0.56489258 0.11660156
vt 0.55947266 0.11660156
vt 0.56489258 0.21933594
vt 0.57031250 0.21933594
vt 0.57031250 0.11660156
vt 0.56489258 0.11660156
vt 0.57031250 0.21933594
vt 0.57573242 0.21933594
vt 0.57573242 0.11660156
vt 0.57031250 0.11660156
vt 0.57573242 0.21933594
vt 0.58115234 0.21933594
vt 0.58115234 0.11660156
vt 0.57573242 0.11660156
vt 0.58115234 0.21933594
vt 0.58657227 0.21933594
vt 0.58657227 0.11660156
vt 0.58115234 0.11660156
vt 0.58657227 0.21933594
vt 0.59199219 0.21933594
vt 0.59199219 0.11660156
vt 0.58657227 0.11660156
vt 0.59199219 0.21933594
vt 0.59741211 0.21933594
vt 0.59741211 0.11660156
vt 0.59199219 0.11660156
vt 0.59741211 0.21933594
vt 0.60283203 0.21933594
vt 0.60283203 0.11660156
vt 0.59741211 0.11660156
vt 0.60283203 0.21933594
vt 0.60825195 0.21933594
vt 0.60825195 0.11660156
vt 0.60283203 0.11660156
vt 0.60825195 0.21933594
vt 0.61367187 0.21933594
vt 0.61367187 0.11660156
vt 0.60825195 0.11660156
vt 0.61367187 0.21933594
vt 0.61909180 0.21933594
vt 0.61909180 0.11660156
vt 0.61367187 0.11660156
vt 0.61909180 0.21933594
vt 0.62451172 0.21933594
vt 0.62451172 0.11660156
vt 0.61909180 0.11660156
vt 0.51611328 0.21933594
vt 0.52153320 0.21933594
vt 0.52153320 0.11660156
vt 0.51611328 0.11660156
vt 0.52153320 0.21933594
vt 0.52695313 0.21933594
vt 0.52695313 0.11660156
vt 0.52153320 0.11660156
vt 0.52695313 0.21933594
vt 0.53237305 0.21933594
vt 0.53237305 0.11660156
vt 0.52695313 0.11660156
vt 0.53237305 0.21933594
vt 0.53779297 0.21933594
vt 0.53779297 0.11660156
vt 0.53237305 0.11660156
vt 0.53779297 0.21933594
vt 0.54321289 0.21933594
vt 0.54321289 0.11660156
vt 0.53779297 0.11660156
vt 0.54321289 0.21933594
vt 0.54863281 0.21933594
vt 0.54863281 0.11660156
vt 0.54321289 0.11660156
vt 0.54863281 0.21933594
vt 0.55405273 0.21933594
vt 0.55405273 0.11660156
vt 0.54863281 0.11660156
vt 0.55405273 0.21933594
vt 0.55947266 0.21933594
vt 0.55947266 0.11660156
vt 0.55405273 0.11660156
vt 0.55947266 0.21933594
vt 0.56489258 0.21933594
vt 0.56489258 0.11660156
vt 0.55947266 0.11660156
vt 0.56489258 0.21933594
vt 0.57031250 0.21933594
vt 0.57031250 0.11660156
vt 0.56489258 0.11660156
vt 0.57031250 0.21933594
vt 0.57573242 0.21933594
vt 0.57573242 0.11660156
vt 0.57031250 0.11660156
vt 0.57573242 0.21933594
vt 0.58115234 0.21933594
vt 0.58115234 0.11660156
vt 0.57573242 0.11660156
vt 0.58115234 0.21933594
vt 0.58657227 0.21933594
vt 0.58657227 0.11660156
vt 0.58115234 0.11660156
vt 0.58657227 0.21933594
vt 0.59199219 0.21933594
vt 0.59199219 0.11660156
vt 0.58657227 0.11660156
vt 0.59199219 0.21933594
vt 0.59741211 0.21933594
vt 0.59741211 0.11660156
vt 0.59199219 0.11660156
vt 0.59741211 0.21933594
vt 0.60283203 0.21933594
vt 0.60283203 0.11660156
vt 0.59741211 0.11660156
vt 0.60283203 0.21933594
vt 0.60825195 0.21933594
vt 0.60825195 0.11660156
vt 0.60283203 0.11660156
vt 0.60825195 0.21933594
vt 0.61367187 0.21933594
vt 0.61367187 0.11660156
vt 0.60825195 0.11660156
vt 0.61367187 0.21933594
vt 0.61909180 0.21933594
vt 0.61909180 0.11660156
vt 0.61367187 0.11660156
vt 0.61909180 0.21933594
vt 0.62451172 0.21933594
vt 0.62451172 0.11660156
vt 0.61909180 0.11660156
vt 0.79687500 0.24218750
vt 0.84673828 0.27429975
vt 0.84673828 0.24218750
vt 0.79687500 0.24218750
vt 0.84673828 0.29205078
vt 0.84673828 0.27429975
vt 0.79687500 0.24218750
vt 0.84673828 0.29205078
vt 0.84673828 0.29205078
vt 0.79687500 0.24218750
vt 0.79687500 0.29205078
vt 0.84673828 0.29205078
vt 0.79687500 0.24218750
vt 0.74701172 0.29205078
vt 0.79687500 0.29205078
vt 0.79687500 0.24218750
vt 0.74701172 0.29205078
vt 0.74701172 0.29205078
vt 0.79687500 0.24218750
vt 0.74701172 0.27727436
vt 0.74701172 0.29205078
vt 0.79687500 0.24218750
vt 0.74701172 0.25593287
vt 0.74701172 0.27727436
vt 0.79687500 0.24218750
vt 0.74701172 0.25061983
vt 0.74701172 0.25593287
vt 0.79687500 0.24218750
vt 0.74701172 0.24218750
vt 0.74701172 0.25061983
vt 0.79687500 0.24218750
vt 0.74701172 0.23375517
vt 0.74701172 0.24218750
vt 0.79687500 0.24218750
vt 0.74701172 0.22844213
vt 0.74701172 0.23375517
vt 0.79687500 0.24218750
vt 0.74701172 0.20710064
vt 0.74701172 0.22844213
vt 0.79687500 0.24218750
vt 0.74701172 0.19232422
vt 0.74701172 0.20710064
vt 0.79687500 0.24218750
vt 0.74701172 0.19232422
vt 0.74701172 0.19232422
vt 0.79687500 0.24218750
vt 0.79687500 0.19232422
vt 0.74701172 0.19232422
vt 0.79687500 0.24218750
vt 0.84673828 0.19232422
vt 0.79687500 0.19232422
vt 0.79687500 0.24218750
vt 0.84673828 0.19232422
vt 0.84673828 0.19232422
vt 0.79687500 0.24218750
vt 0.84673828 0.21007525
vt 0.84673828 0.19232422
vt 0.79687500 0.24218750
vt 0.84673828 0.24218750
vt 0.84673828 0.21007525
vt 0.84457031 0.24218750
vt 0.83813145 0.26603516
vt 0.79687500 0.24218750
vt 0.83813145 0.26603516
vt 0.82072266 0.28344395
vt 0.79687500 0.24218750
vt 0.82072266 0.28344395
vt 0.81372266 0.28533394
vt 0.79687500 0.24218750
vt 0.81372266 0.28533394
vt 0.79687500 0.28988281
vt 0.79687500 0.24218750
vt 0.79687500 0.28988281
vt 0.78054644 0.28400453
vt 0.79687500 0.24218750
vt 0.78054644 0.28400453
vt 0.76706543 0.27915137
vt 0.79687500 0.24218750
vt 0.76706543 0.27915137
vt 0.75156445 0.27080469
vt 0.79687500 0.24218750
vt 0.75156445 0.27080469
vt 0.74701172 0.27080469
vt 0.79687500 0.24218750
vt 0.74701172 0.27080469
vt 0.74701172 0.26245801
vt 0.79687500 0.24218750
vt 0.74701172 0.26245801
vt 0.74701172 0.24218750
vt 0.79687500 0.24218750
vt 0.74701172 0.24218750
vt 0.74701172 0.22191699
vt 0.79687500 0.24218750
vt 0.74701172 0.22191699
vt 0.74701172 0.21357031
vt 0.79687500 0.24218750
vt 0.74701172 0.21357031
vt 0.75156445 0.21357031
vt 0.79687500 0.24218750
vt 0.75156445 0.21357031
vt 0.76706543 0.20522363
vt 0.79687500 0.24218750
vt 0.76706543 0.20522363
vt 0.78054644 0.20037047
vt 0.79687500 0.24218750
vt 0.78054644 0.20037047
vt 0.79687500 0.19449219
vt 0.79687500 0.24218750
vt 0.79687500 0.19449219
vt 0.81372266 0.19904106
vt 0.79687500 0.24218750
vt 0.81372266 0.19904106
vt 0.82072266 0.20093105
vt 0.79687500 0.24218750
vt 0.82072266 0.20093105
vt 0.83813145 0.21833984
vt 0.79687500 0.24218750
vt 0.83813145 0.21833984
vt 0.84457031 0.24218750
vt 0.79687500 0.24218750
usemtl ReferencePencil
g DoorLeaf
f 1/1 2/2 3/3 4/4
f 2/5 5/6 6/7 3/8
f 5/9 7/10 8/11 6/12
f 7/13 9/14 10/15 8/16
f 9/17 11/18 12/19 10/20
f 4/21 3/22 13/23 14/24
f 3/25 6/26 15/27 16/28
f 6/29 17/30 18/31 15/32
f 17/33 13/34 19/35 18/36
f 13/37 3/38 16/39 19/40
f 16/41 15/42 20/43 21/44
f 15/45 18/46 22/47 20/48
f 18/49 19/50 23/51 22/52
f 19/53 16/54 21/55 23/56
f 21/57 20/58 24/59
f 20/60 22/61 24/62
f 22/63 23/64 24/65
f 23/66 21/67 24/68
f 6/69 8/70 25/71 17/72
f 8/73 10/74 26/75 27/76
f 10/77 28/78 29/79 26/80
f 28/81 25/82 30/83 29/84
f 25/85 8/86 27/87 30/88
f 27/89 26/90 31/91 32/92
f 26/93 29/94 33/95 31/96
f 29/97 30/98 34/99 33/100
f 30/101 27/102 32/103 34/104
f 32/105 31/106 35/107
f 31/108 33/109 35/110
f 33/111 34/112 35/113
f 34/114 32/115 35/116
f 10/117 12/118 36/119 28/120
f 14/121 13/122 37/123 38/124
f 13/125 17/126 39/127 37/128
f 17/129 25/130 40/131 39/132
f 25/133 28/134 41/135 40/136
f 28/137 36/138 42/139 41/140
f 38/141 37/142 43/143 44/144
f 37/145 39/146 45/147 46/148
f 39/149 47/150 48/151 45/152
f 47/153 43/154 49/155 48/156
f 43/157 37/158 46/159 49/160
f 46/161 45/162 50/163 51/164
f 45/165 48/166 52/167 50/168
f 48/169 49/170 53/171 52/172
f 49/173 46/174 51/175 53/176
f 51/177 50/178 54/179
f 50/180 52/181 54/182
f 52/183 53/184 54/185
f 53/186 51/187 54/188
f 39/189 40/190 55/191 47/192
f 40/193 41/194 56/195 57/196
f 41/197 58/198 59/199 56/200
f 58/201 55/202 60/203 59/204
f 55/205 40/206 57/207 60/208
f 57/209 56/210 61/211 62/212
f 56/213 59/214 63/215 61/216
f 59/217 60/218 64/219 63/220
f 60/221 57/222 62/223 64/224
f 62/225 61/226 65/227
f 61/228 63/229 65/230
f 63/231 64/232 65/233
f 64/234 62/235 65/236
f 41/237 42/238 66/239 58/240
f 44/241 43/242 67/243 68/244
f 43/245 47/246 69/247 67/248
f 47/249 55/250 70/251 69/252
f 55/253 58/254 71/255 70/256
f 58/257 66/258 72/259 71/260
f 68/261 67/262 73/263 74/264
f 67/265 69/266 75/267 76/268
f 69/269 77/270 78/271 75/272
f 77/273 73/274 79/275 78/276
f 73/277 67/278 76/279 79/280
f 76/281 75/282 80/283 81/284
f 75/285 78/286 82/287 80/288
f 78/289 79/290 83/291 82/292
f 79/293 76/294 81/295 83/296
f 81/297 80/298 84/299
f 80/300 82/301 84/302
f 82/303 83/304 84/305
f 83/306 81/307 84/308
f 69/309 70/310 85/311 77/312
f 70/313 71/314 86/315 87/316
f 71/317 88/318 89/319 86/320
f 88/321 85/322 90/323 89/324
f 85/325 70/326 87/327 90/328
f 87/329 86/330 91/331 92/332
f 86/333 89/334 93/335 91/336
f 89/337 90/338 94/339 93/340
f 90/341 87/342 92/343 94/344
f 92/345 91/346 95/347
f 91/348 93/349 95/350
f 93/351 94/352 95/353
f 94/354 92/355 95/356
f 71/357 72/358 96/359 88/360
f 74/361 73/362 97/363 98/364
f 73/365 77/366 99/367 97/368
f 77/369 85/370 100/371 99/372
f 85/373 88/374 101/375 100/376
f 88/377 96/378 102/379 101/380
f 103/381 104/382 105/383 106/384
f 104/385 107/386 108/387 105/388
f 107/389 109/390 110/391 108/392
f 109/393 111/394 112/395 110/396
f 111/397 113/398 114/399 112/400
f 115/401 116/402 104/403 103/404
f 117/405 118/406 107/407 104/408
f 118/409 119/410 120/411 107/412
f 119/413 121/414 116/415 120/416
f 121/417 117/418 104/419 116/420
f 122/421 123/422 118/423 117/424
f 123/425 124/426 119/427 118/428
f 124/429 125/430 121/431 119/432
f 125/433 122/434 117/435 121/436
f 126/437 123/438 122/439
f 126/440 124/441 123/442
f 126/443 125/444 124/445
f 126/446 122/447 125/448
f 120/449 127/450 109/451 107/452
f 128/453 129/454 111/455 109/456
f 129/457 130/458 131/459 111/460
f 130/461 132/462 127/463 131/464
f 132/465 128/466 109/467 127/468
f 133/469 134/470 129/471 128/472
f 134/473 135/474 130/475 129/476
f 135/477 136/478 132/479 130/480
f 136/481 133/482 128/483 132/484
f 137/485 134/486 133/487
f 137/488 135/489 134/490
f 137/491 136/492 135/493
f 137/494 133/495 136/496
f 131/497 138/498 113/499 111/500
f 139/501 140/502 116/503 115/504
f 140/505 141/506 120/507 116/508
f 141/509 142/510 127/511 120/512
f 142/513 143/514 131/515 127/516
f 143/517 144/518 138/519 131/520
f 145/521 146/522 140/523 139/524
f 147/525 148/526 141/527 140/528
f 148/529 149/530 150/531 141/532
f 149/533 151/534 146/535 150/536
f 151/537 147/538 140/539 146/540
f 152/541 153/542 148/543 147/544
f 153/545 154/546 149/547 148/548
f 154/549 155/550 151/551 149/552
f 155/553 152/554 147/555 151/556
f 156/557 153/558 152/559
f 156/560 154/561 153/562
f 156/563 155/564 154/565
f 156/566 152/567 155/568
f 150/569 157/570 142/571 141/572
f 158/573 159/574 143/575 142/576
f 159/577 160/578 161/579 143/580
f 160/581 162/582 157/583 161/584
f 162/585 158/586 142/587 157/588
f 163/589 164/590 159/591 158/592
f 164/593 165/594 160/595 159/596
f 165/597 166/598 162/599 160/600
f 166/601 163/602 158/603 162/604
f 167/605 164/606 163/607
f 167/608 165/609 164/610
f 167/611 166/612 165/613
f 167/614 163/615 166/616
f 161/617 168/618 144/619 143/620
f 169/621 170/622 146/623 145/624
f 170/625 171/626 150/627 146/628
f 171/629 172/630 157/631 150/632
f 172/633 173/634 161/635 157/636
f 173/637 174/638 168/639 161/640
f 175/641 176/642 170/643 169/644
f 177/645 178/646 171/647 170/648
f 178/649 179/650 180/651 171/652
f 179/653 181/654 176/655 180/656
f 181/657 177/658 170/659 176/660
f 182/661 183/662 178/663 177/664
f 183/665 184/666 179/667 178/668
f 184/669 185/670 181/671 179/672
f 185/673 182/674 177/675 181/676
f 186/677 183/678 182/679
f 186/680 184/681 183/682
f 186/683 185/684 184/685
f 186/686 182/687 185/688
f 180/689 187/690 172/691 171/692
f 188/693 189/694 173/695 172/696
f 189/697 190/698 191/699 173/700
f 190/701 192/702 187/703 191/704
f 192/705 188/706 172/707 187/708
f 193/709 194/710 189/711 188/712
f 194/713 195/714 190/715 189/716
f 195/717 196/718 192/719 190/720
f 196/721 193/722 188/723 192/724
f 197/725 194/726 193/727
f 197/728 195/729 194/730
f 197/731 196/732 195/733
f 197/734 193/735 196/736
f 191/737 198/738 174/739 173/740
f 199/741 200/742 176/743 175/744
f 200/745 201/746 180/747 176/748
f 201/749 202/750 187/751 180/752
f 202/753 203/754 191/755 187/756
f 203/757 204/758 198/759 191/760
f 1/761 205/762 206/763 2/764
f 106/765 105/766 207/767 208/768
f 205/769 208/770 207/771 206/772
f 2/773 206/774 209/775 5/776
f 105/777 108/778 210/779 207/780
f 206/781 207/782 210/783 209/784
f 5/785 209/786 211/787 7/788
f 108/789 110/790 212/791 210/792
f 209/793 210/794 212/795 211/796
f 7/797 211/798 213/799 9/800
f 110/801 112/802 214/803 212/804
f 211/805 212/806 214/807 213/808
f 9/809 213/810 215/811 11/812
f 112/813 114/814 216/815 214/816
f 213/817 214/818 216/819 215/820
f 11/821 215/822 217/823 12/824
f 114/825 113/826 218/827 216/828
f 215/829 216/830 218/831 217/832
f 12/833 217/834 219/835 36/836
f 113/837 138/838 220/839 218/840
f 217/841 218/842 220/843 219/844
f 36/845 219/846 221/847 42/848
f 138/849 144/850 222/851 220/852
f 219/853 220/854 222/855 221/856
f 42/857 221/858 223/859 66/860
f 144/861 168/862 224/863 222/864
f 221/865 222/866 224/867 223/868
f 66/869 223/870 225/871 72/872
f 168/873 174/874 226/875 224/876
f 223/877 224/878 226/879 225/880
f 72/881 225/882 227/883 96/884
f 174/885 198/886 228/887 226/888
f 225/889 226/890 228/891 227/892
f 96/893 227/894 229/895 102/896
f 198/897 204/898 230/899 228/900
f 227/901 228/902 230/903 229/904
f 102/905 229/906 231/907 101/908
f 204/909 203/910 232/911 230/912
f 229/913 230/914 232/915 231/916
f 101/917 231/918 233/919 100/920
f 203/921 202/922 234/923 232/924
f 231/925 232/926 234/927 233/928
f 100/929 233/930 235/931 99/932
f 202/933 201/934 236/935 234/936
f 233/937 234/938 236/939 235/940
f 99/941 235/942 237/943 97/944
f 201/945 200/946 238/947 236/948
f 235/949 236/950 238/951 237/952
f 97/953 237/954 239/955 98/956
f 200/957 199/958 240/959 238/960
f 237/961 238/962 240/963 239/964
f 98/965 239/966 241/967 74/968
f 199/969 175/970 242/971 240/972
f 239/973 240/974 242/975 241/976
f 74/977 241/978 243/979 68/980
f 175/981 169/982 244/983 242/984
f 241/985 242/986 244/987 243/988
f 68/989 243/990 245/991 44/992
f 169/993 145/994 246/995 244/996
f 243/997 244/998 246/999 245/1000
f 44/1001 245/1002 247/1003 38/1004
f 145/1005 139/1006 248/1007 246/1008
f 245/1009 246/1010 248/1011 247/1012
f 38/1013 247/1014 249/1015 14/1016
f 139/1017 115/1018 250/1019 248/1020
f 247/1021 248/1022 250/1023 249/1024
f 14/1025 249/1026 251/1027 4/1028
f 115/1029 103/1030 252/1031 250/1032
f 249/1033 250/1034 252/1035 251/1036
f 4/1037 251/1038 205/1039 1/1040
f 103/1041 106/1042 208/1043 252/1044
f 251/1045 252/1046 208/1047 205/1048
g Hinge_1
f 253/1049 254/1050 255/1051 256/1052
f 256/1053 255/1054 257/1055 258/1056
f 258/1057 257/1058 259/1059 260/1060
f 260/1061 259/1062 261/1063 262/1064
f 262/1065 261/1066 263/1067 264/1068
f 264/1069 263/1070 265/1071 266/1072
f 266/1073 265/1074 267/1075 268/1076
f 268/1077 267/1078 269/1079 270/1080
f 270/1081 269/1082 271/1083 272/1084
f 272/1085 271/1086 273/1087 274/1088
f 274/1089 273/1090 275/1091 276/1092
f 276/1093 275/1094 277/1095 278/1096
f 278/1097 277/1098 254/1099 253/1100
f 254/1101 279/1102 280/1103 255/1104
f 255/1105 280/1106 281/1107 257/1108
f 257/1109 281/1110 282/1111 259/1112
f 259/1113 282/1114 283/1115 261/1116
f 261/1117 283/1118 284/1119 263/1120
f 263/1121 284/1122 285/1123 265/1124
f 265/1125 285/1126 286/1127 267/1128
f 267/1129 286/1130 287/1131 269/1132
f 269/1133 287/1134 288/1135 271/1136
f 271/1137 288/1138 289/1139 273/1140
f 273/1141 289/1142 290/1143 275/1144
f 275/1145 290/1146 291/1147 277/1148
f 277/1149 291/1150 279/1151 254/1152
f 279/1153 292/1154 293/1155 280/1156
f 280/1157 293/1158 294/1159 281/1160
f 281/1161 294/1162 295/1163 282/1164
f 282/1165 295/1166 296/1167 283/1168
f 283/1169 296/1170 297/1171 284/1172
f 284/1173 297/1174 298/1175 285/1176
f 285/1177 298/1178 299/1179 286/1180
f 286/1181 299/1182 300/1183 287/1184
f 287/1185 300/1186 301/1187 288/1188
f 288/1189 301/1190 302/1191 289/1192
f 289/1193 302/1194 303/1195 290/1196
f 290/1197 303/1198 304/1199 291/1200
f 291/1201 304/1202 292/1203 279/1204
f 278/1205 253/1206 256/1207
f 293/1208 292/1209 304/1210
f 278/1211 256/1212 258/1213
f 294/1214 293/1215 304/1216
f 278/1217 258/1218 260/1219
f 295/1220 294/1221 304/1222
f 278/1223 260/1224 262/1225
f 296/1226 295/1227 304/1228
f 278/1229 262/1230 264/1231
f 297/1232 296/1233 304/1234
f 278/1235 264/1236 266/1237
f 298/1238 297/1239 304/1240
f 278/1241 266/1242 268/1243
f 299/1244 298/1245 304/1246
f 278/1247 268/1248 270/1249
f 300/1250 299/1251 304/1252
f 270/1253 272/1254 274/1255
f 302/1256 301/1257 300/1258
f 270/1259 274/1260 276/1261
f 303/1262 302/1263 300/1264
f 270/1265 276/1266 278/1267
f 304/1268 303/1269 300/1270
g Hinge_2
f 305/1271 306/1272 307/1273 308/1274
f 308/1275 307/1276 309/1277 310/1278
f 310/1279 309/1280 311/1281 312/1282
f 312/1283 311/1284 313/1285 314/1286
f 314/1287 313/1288 315/1289 316/1290
f 316/1291 315/1292 317/1293 318/1294
f 318/1295 317/1296 319/1297 320/1298
f 320/1299 319/1300 321/1301 322/1302
f 322/1303 321/1304 323/1305 324/1306
f 324/1307 323/1308 325/1309 326/1310
f 326/1311 325/1312 327/1313 328/1314
f 328/1315 327/1316 329/1317 330/1318
f 330/1319 329/1320 306/1321 305/1322
f 306/1323 331/1324 332/1325 307/1326
f 307/1327 332/1328 333/1329 309/1330
f 309/1331 333/1332 334/1333 311/1334
f 311/1335 334/1336 335/1337 313/1338
f 313/1339 335/1340 336/1341 315/1342
f 315/1343 336/1344 337/1345 317/1346
f 317/1347 337/1348 338/1349 319/1350
f 319/1351 338/1352 339/1353 321/1354
f 321/1355 339/1356 340/1357 323/1358
f 323/1359 340/1360 341/1361 325/1362
f 325/1363 341/1364 342/1365 327/1366
f 327/1367 342/1368 343/1369 329/1370
f 329/1371 343/1372 331/1373 306/1374
f 331/1375 344/1376 345/1377 332/1378
f 332/1379 345/1380 346/1381 333/1382
f 333/1383 346/1384 347/1385 334/1386
f 334/1387 347/1388 348/1389 335/1390
f 335/1391 348/1392 349/1393 336/1394
f 336/1395 349/1396 350/1397 337/1398
f 337/1399 350/1400 351/1401 338/1402
f 338/1403 351/1404 352/1405 339/1406
f 339/1407 352/1408 353/1409 340/1410
f 340/1411 353/1412 354/1413 341/1414
f 341/1415 354/1416 355/1417 342/1418
f 342/1419 355/1420 356/1421 343/1422
f 343/1423 356/1424 344/1425 331/1426
f 330/1427 305/1428 308/1429
f 345/1430 344/1431 356/1432
f 330/1433 308/1434 310/1435
f 346/1436 345/1437 356/1438
f 330/1439 310/1440 312/1441
f 347/1442 346/1443 356/1444
f 330/1445 312/1446 314/1447
f 348/1448 347/1449 356/1450
f 330/1451 314/1452 316/1453
f 349/1454 348/1455 356/1456
f 330/1457 316/1458 318/1459
f 350/1460 349/1461 356/1462
f 330/1463 318/1464 320/1465
f 351/1466 350/1467 356/1468
f 330/1469 320/1470 322/1471
f 352/1472 351/1473 356/1474
f 322/1475 324/1476 326/1477
f 354/1478 353/1479 352/1480
f 322/1481 326/1482 328/1483
f 355/1484 354/1485 352/1486
f 322/1487 328/1488 330/1489
f 356/1490 355/1491 352/1492
g HandleAssembly
f 357/1493 358/1494 359/1495 360/1496
f 358/1497 361/1498 362/1499 359/1500
f 361/1501 363/1502 364/1503 362/1504
f 363/1505 365/1506 366/1507 364/1508
f 365/1509 367/1510 368/1511 366/1512
f 367/1513 369/1514 370/1515 368/1516
f 369/1517 371/1518 372/1519 370/1520
f 371/1521 373/1522 374/1523 372/1524
f 373/1525 375/1526 376/1527 374/1528
f 375/1529 377/1530 378/1531 376/1532
f 377/1533 379/1534 380/1535 378/1536
f 379/1537 381/1538 382/1539 380/1540
f 381/1541 383/1542 384/1543 382/1544
f 383/1545 385/1546 386/1547 384/1548
f 385/1549 387/1550 388/1551 386/1552
f 387/1553 389/1554 390/1555 388/1556
f 389/1557 391/1558 392/1559 390/1560
f 391/1561 393/1562 394/1563 392/1564
f 393/1565 395/1566 396/1567 394/1568
f 395/1569 357/1570 360/1571 396/1572
f 360/1573 359/1574 397/1575 398/1576
f 359/1577 362/1578 399/1579 397/1580
f 362/1581 364/1582 400/1583 399/1584
f 364/1585 366/1586 401/1587 400/1588
f 366/1589 368/1590 402/1591 401/1592
f 368/1593 370/1594 403/1595 402/1596
f 370/1597 372/1598 404/1599 403/1600
f 372/1601 374/1602 405/1603 404/1604
f 374/1605 376/1606 406/1607 405/1608
f 376/1609 378/1610 407/1611 406/1612
f 378/1613 380/1614 408/1615 407/1616
f 380/1617 382/1618 409/1619 408/1620
f 382/1621 384/1622 410/1623 409/1624
f 384/1625 386/1626 411/1627 410/1628
f 386/1629 388/1630 412/1631 411/1632
f 388/1633 390/1634 413/1635 412/1636
f 390/1637 392/1638 414/1639 413/1640
f 392/1641 394/1642 415/1643 414/1644
f 394/1645 396/1646 416/1647 415/1648
f 396/1649 360/1650 398/1651 416/1652
f 398/1653 397/1654 417/1655 418/1656
f 397/1657 399/1658 419/1659 417/1660
f 399/1661 400/1662 420/1663 419/1664
f 400/1665 401/1666 421/1667 420/1668
f 401/1669 402/1670 422/1671 421/1672
f 402/1673 403/1674 423/1675 422/1676
f 403/1677 404/1678 424/1679 423/1680
f 404/1681 405/1682 425/1683 424/1684
f 405/1685 406/1686 426/1687 425/1688
f 406/1689 407/1690 427/1691 426/1692
f 407/1693 408/1694 428/1695 427/1696
f 408/1697 409/1698 429/1699 428/1700
f 409/1701 410/1702 430/1703 429/1704
f 410/1705 411/1706 431/1707 430/1708
f 411/1709 412/1710 432/1711 431/1712
f 412/1713 413/1714 433/1715 432/1716
f 413/1717 414/1718 434/1719 433/1720
f 414/1721 415/1722 435/1723 434/1724
f 415/1725 416/1726 436/1727 435/1728
f 416/1729 398/1730 418/1731 436/1732
f 418/1733 417/1734 437/1735 438/1736
f 417/1737 419/1738 439/1739 437/1740
f 419/1741 420/1742 440/1743 439/1744
f 420/1745 421/1746 441/1747 440/1748
f 421/1749 422/1750 442/1751 441/1752
f 422/1753 423/1754 443/1755 442/1756
f 423/1757 424/1758 444/1759 443/1760
f 424/1761 425/1762 445/1763 444/1764
f 425/1765 426/1766 446/1767 445/1768
f 426/1769 427/1770 447/1771 446/1772
f 427/1773 428/1774 448/1775 447/1776
f 428/1777 429/1778 449/1779 448/1780
f 429/1781 430/1782 450/1783 449/1784
f 430/1785 431/1786 451/1787 450/1788
f 431/1789 432/1790 452/1791 451/1792
f 432/1793 433/1794 453/1795 452/1796
f 433/1797 434/1798 454/1799 453/1800
f 434/1801 435/1802 455/1803 454/1804
f 435/1805 436/1806 456/1807 455/1808
f 436/1809 418/1810 438/1811 456/1812
f 438/1813 437/1814 457/1815 458/1816
f 437/1817 439/1818 459/1819 457/1820
f 439/1821 440/1822 460/1823 459/1824
f 440/1825 441/1826 461/1827 460/1828
f 441/1829 442/1830 462/1831 461/1832
f 442/1833 443/1834 463/1835 462/1836
f 443/1837 444/1838 464/1839 463/1840
f 444/1841 445/1842 465/1843 464/1844
f 445/1845 446/1846 466/1847 465/1848
f 446/1849 447/1850 467/1851 466/1852
f 447/1853 448/1854 468/1855 467/1856
f 448/1857 449/1858 469/1859 468/1860
f 449/1861 450/1862 470/1863 469/1864
f 450/1865 451/1866 471/1867 470/1868
f 451/1869 452/1870 472/1871 471/1872
f 452/1873 453/1874 473/1875 472/1876
f 453/1877 454/1878 474/1879 473/1880
f 454/1881 455/1882 475/1883 474/1884
f 455/1885 456/1886 476/1887 475/1888
f 456/1889 438/1890 458/1891 476/1892
f 458/1893 457/1894 477/1895 478/1896
f 457/1897 459/1898 479/1899 477/1900
f 459/1901 460/1902 480/1903 479/1904
f 460/1905 461/1906 481/1907 480/1908
f 461/1909 462/1910 482/1911 481/1912
f 462/1913 463/1914 483/1915 482/1916
f 463/1917 464/1918 484/1919 483/1920
f 464/1921 465/1922 485/1923 484/1924
f 465/1925 466/1926 486/1927 485/1928
f 466/1929 467/1930 487/1931 486/1932
f 467/1933 468/1934 488/1935 487/1936
f 468/1937 469/1938 489/1939 488/1940
f 469/1941 470/1942 490/1943 489/1944
f 470/1945 471/1946 491/1947 490/1948
f 471/1949 472/1950 492/1951 491/1952
f 472/1953 473/1954 493/1955 492/1956
f 473/1957 474/1958 494/1959 493/1960
f 474/1961 475/1962 495/1963 494/1964
f 475/1965 476/1966 496/1967 495/1968
f 476/1969 458/1970 478/1971 496/1972
f 497/1973 358/1974 357/1975
f 497/1976 361/1977 358/1978
f 497/1979 363/1980 361/1981
f 497/1982 365/1983 363/1984
f 497/1985 367/1986 365/1987
f 497/1988 369/1989 367/1990
f 497/1991 371/1992 369/1993
f 497/1994 373/1995 371/1996
f 497/1997 375/1998 373/1999
f 497/2000 377/2001 375/2002
f 497/2003 379/2004 377/2005
f 497/2006 381/2007 379/2008
f 497/2009 383/2010 381/2011
f 497/2012 385/2013 383/2014
f 497/2015 387/2016 385/2017
f 497/2018 389/2019 387/2020
f 497/2021 391/2022 389/2023
f 497/2024 393/2025 391/2026
f 497/2027 395/2028 393/2029
f 497/2030 357/2031 395/2032
f 478/2033 477/2034 498/2035
f 477/2036 479/2037 498/2038
f 479/2039 480/2040 498/2041
f 480/2042 481/2043 498/2044
f 481/2045 482/2046 498/2047
f 482/2048 483/2049 498/2050
f 483/2051 484/2052 498/2053
f 484/2054 485/2055 498/2056
f 485/2057 486/2058 498/2059
f 486/2060 487/2061 498/2062
f 487/2063 488/2064 498/2065
f 488/2066 489/2067 498/2068
f 489/2069 490/2070 498/2071
f 490/2072 491/2073 498/2074
f 491/2075 492/2076 498/2077
f 492/2078 493/2079 498/2080
f 493/2081 494/2082 498/2083
f 494/2084 495/2085 498/2086
f 495/2087 496/2088 498/2089
f 496/2090 478/2091 498/2092
