<svg xmlns="http://www.w3.org/2000/svg" viewBox="0 0 600 700">
  <defs>
    <filter id="soft" x="-30%" y="-30%" width="160%" height="160%">
      <feGaussianBlur stdDeviation="14"/>
    </filter>
  </defs>
  <g fill="#000" opacity="0.74" filter="url(#soft)">
    <!-- back rest -->
    <path d="M160 80 C250 45 372 50 446 92 L417 285 C344 255 240 255 174 290 Z"/>
    <path d="M205 124 C265 104 348 107 398 128 L382 235 C326 218 258 218 217 239 Z" opacity="0.35"/>
    <!-- seat -->
    <path d="M132 315 C224 278 392 278 486 318 L440 385 C346 360 235 360 148 390 Z"/>
    <!-- legs -->
    <path d="M170 375 L223 370 L198 626 L132 625 Z"/>
    <path d="M402 370 L456 376 L506 626 L440 626 Z"/>
    <path d="M270 365 L318 363 L315 610 L258 610 Z" opacity="0.55"/>
    <!-- crossbar -->
    <path d="M180 500 C260 482 388 482 468 502 L460 532 C370 518 260 518 172 536 Z" opacity="0.55"/>
    <ellipse cx="315" cy="640" rx="210" ry="36" opacity="0.35"/>
  </g>
</svg>
