<svg xmlns="http://www.w3.org/2000/svg" viewBox="0 0 800 500">
  <defs>
    <filter id="soft" x="-25%" y="-25%" width="150%" height="150%">
      <feGaussianBlur stdDeviation="16"/>
    </filter>
  </defs>
  <g fill="#000" opacity="0.72" filter="url(#soft)">
    <!-- table top -->
    <path d="M150 145 C245 112 548 110 654 150 L624 200 C520 178 280 178 178 202 Z"/>
    <!-- front apron -->
    <path d="M188 200 C295 178 515 178 613 200 L595 240 C490 225 305 225 205 242 Z" opacity="0.65"/>
    <!-- legs -->
    <path d="M215 226 L262 230 L234 430 L178 430 Z"/>
    <path d="M548 226 L596 222 L642 430 L584 430 Z"/>
    <path d="M360 225 L402 224 L397 410 L348 410 Z" opacity="0.55"/>
    <path d="M462 224 L505 226 L535 414 L485 414 Z" opacity="0.55"/>
    <!-- soft contact shadow -->
    <ellipse cx="405" cy="435" rx="260" ry="35" opacity="0.35"/>
  </g>
</svg>
