<svg xmlns="http://www.w3.org/2000/svg" width="900" height="1200" viewBox="0 0 900 1200">
  <defs>
    <filter id="paperShadow" x="-20%" y="-20%" width="140%" height="140%">
      <feDropShadow dx="0" dy="14" stdDeviation="14" flood-color="#000" flood-opacity="0.13"/>
    </filter>
  </defs>
  <rect x="70" y="45" width="760" height="1110" rx="38" fill="#fffdf7" stroke="#111111" stroke-width="8" filter="url(#paperShadow)"/>
  <path d="M128 118 C232 84 323 94 433 89 C552 84 637 94 771 75" fill="none" stroke="#111111" stroke-width="6" stroke-linecap="round" opacity="0.55"/>
  <rect x="110" y="130" width="680" height="104" rx="24" fill="#ffffff" stroke="#111111" stroke-width="5"/>
  <text x="450" y="200" text-anchor="middle" font-size="64" font-weight="800" fill="#111111" font-family="Arial, sans-serif">eZorro</text>
  <text x="450" y="262" text-anchor="middle" font-size="30" fill="#333333" font-family="Arial, sans-serif">React · Tailwind CSS · Framer Motion</text>
  <text x="130" y="282" font-size="32" fill="#333333" font-family="Arial, sans-serif">Financial trading platform frontend with real-time</text><text x="130" y="324" font-size="32" fill="#333333" font-family="Arial, sans-serif">market analysis, portfolio management and AI assistance.</text>
  <line x1="120" y1="420" x2="780" y2="420" stroke="#111111" stroke-width="5" stroke-linecap="round" opacity="0.55"/>
  <text x="130" y="480" font-size="38" font-weight="800" fill="#111111" font-family="Arial, sans-serif">Highlights</text>
  <text x="150" y="535" font-size="31" fill="#111111" font-family="Arial, sans-serif"><tspan font-size="34">•</tspan> Responsive UI with Tailwind CSS</text><text x="150" y="593" font-size="31" fill="#111111" font-family="Arial, sans-serif"><tspan font-size="34">•</tspan> Smooth interaction polish with Framer Motion</text><text x="150" y="651" font-size="31" fill="#111111" font-family="Arial, sans-serif"><tspan font-size="34">•</tspan> Streaming real-time chat experience</text><text x="150" y="709" font-size="31" fill="#111111" font-family="Arial, sans-serif"><tspan font-size="34">•</tspan> Interactive dashboards for trading insights</text>
  <path d="M132 1006 C246 1032 352 1008 462 1031 C571 1053 675 1035 766 1055" fill="none" stroke="#111111" stroke-width="5" stroke-linecap="round" opacity="0.35"/>
  <text x="450" y="1110" text-anchor="middle" font-size="26" fill="#333333" font-family="Arial, sans-serif">Monther Abdelrazek · Front-end</text>
</svg>
